<svg width="48" height="34" viewBox="0 0 48 34" fill="none" xmlns="http://www.w3.org/2000/svg">
<path d="M3.17993 0.089919C3.17993 0.138644 5.30295 5.52623 7.89233 12.0623L12.6047 23.9582L12.8832 23.9373L13.1616 23.9164L15.0062 18.6054C16.0155 15.6889 16.8717 13.3222 16.8925 13.3501C16.9204 13.3849 17.7069 15.7794 18.6397 18.682L20.3381 23.9582L20.6096 23.9373L20.881 23.9164L23.1224 16.7121C25.1827 10.1064 26.4078 6.34064 26.4983 6.34064C26.5192 6.34064 27.2153 8.12258 28.0436 10.3013L29.561 14.2619L29.3244 14.8466C29.1921 15.1599 28.9554 15.7028 28.8023 16.0369C27.5424 18.7307 27.2153 20.095 27.5007 21.3897C27.7234 22.3781 28.4334 23.2691 29.3452 23.6937C29.7281 23.8747 29.8951 23.9095 30.5216 23.9373C31.3569 23.9721 31.8372 23.8886 32.4497 23.5962C33.3337 23.1716 34.0855 22.3642 34.3361 21.5568C34.4892 21.0695 34.5379 19.9697 34.4405 19.385C34.3013 18.5985 33.9184 17.5126 32.8326 14.8327C32.2618 13.4336 31.7537 12.1807 31.698 12.0484C31.5936 11.8048 31.5936 11.7978 32.6933 9.02051C33.6539 6.59818 33.8071 6.26407 33.8697 6.41025C33.9045 6.50769 35.582 10.4823 37.5937 15.2503L41.2481 23.9164L43.0648 23.9373C44.0672 23.9443 44.8676 23.9304 44.8468 23.8956C44.8328 23.8677 42.7237 18.5358 40.1761 12.0484C37.6215 5.56104 35.5194 0.208251 35.4985 0.159526C35.4776 0.110801 35.3384 0.0759976 35.1714 0.0759976H34.886L33.0414 5.36614C32.0251 8.27572 31.1829 10.6563 31.162 10.6563C31.1411 10.6563 30.3615 8.27572 29.4218 5.36614L27.7164 0.0690369L27.438 0.089919L27.1665 0.110801L24.96 7.21073C22.9901 13.5728 21.6676 17.617 21.5562 17.617C21.5353 17.617 20.8393 15.842 20.0109 13.6703L18.5005 9.72354L18.7302 9.15973C18.8555 8.85345 19.1965 8.06689 19.4889 7.41955C20.3798 5.39398 20.6513 4.48909 20.6513 3.49371C20.6513 1.81618 19.5863 0.39619 18.0898 0.0829583C16.8229 -0.181549 15.5213 0.19433 14.5885 1.09922C13.8368 1.82314 13.5514 2.52617 13.5514 3.70949C13.5514 4.87193 13.7533 5.52623 15.2637 9.26414C15.8902 10.8094 16.4053 12.125 16.4053 12.1876C16.4053 12.3617 14.2892 17.6796 14.2335 17.6309C14.2127 17.6031 12.6187 13.886 10.6975 9.36855C8.77634 4.85105 7.09185 0.897362 6.9596 0.577169L6.71597 0.00639048H4.94795C3.62542 0.00639048 3.17993 0.0272726 3.17993 0.089919ZM18.1803 0.59109C18.9111 0.925204 19.3149 1.46118 19.5446 2.37303C19.7464 3.16655 19.7047 4.30115 19.4471 5.15732C19.2383 5.83947 18.0759 8.70728 18.0062 8.70728C17.9018 8.70728 17.0039 6.65387 16.6071 5.50535C15.9946 3.75125 15.7858 2.36607 16.0155 1.58647C16.1477 1.14099 16.4819 0.716383 16.8438 0.535405C17.1779 0.375308 17.7626 0.39619 18.1803 0.59109ZM30.4311 16.1344C32.2618 20.1925 32.5472 22.5869 31.2734 23.3596C30.988 23.5336 30.8627 23.5614 30.5216 23.5545C29.7907 23.5406 29.039 23.0255 28.6631 22.2876C28.2872 21.5568 28.1967 20.1855 28.4543 19.1414C28.6004 18.5497 29.8951 15.2503 29.9787 15.2503C30.0065 15.2503 30.2084 15.6471 30.4311 16.1344Z" fill="#EC025D"/>
<path d="M27.9671 29.3945C27.6678 30.8911 27.1249 33.6893 27.1249 33.7519C27.1249 33.8076 27.2571 33.8355 27.466 33.8355H27.807L27.8836 33.3969C28.1829 31.6637 28.2734 31.1904 28.3082 31.1904C28.3291 31.1904 28.6075 31.796 28.9277 32.5338C29.2479 33.2647 29.5333 33.8981 29.5611 33.9259C29.6029 33.9747 29.756 33.6684 30.64 31.7194C30.7793 31.4201 30.9045 31.1834 30.9185 31.2043C30.9324 31.2182 31.0298 31.7333 31.1273 32.3389C31.3918 33.9955 31.3222 33.8355 31.7329 33.8355C32.06 33.8355 32.0809 33.8285 32.0461 33.6754C32.0252 33.5918 31.8303 32.5199 31.6145 31.2948C31.3988 30.0697 31.2108 29.0604 31.2039 29.0465C31.1899 29.0395 30.9324 29.5685 30.6331 30.2298C30.3268 30.8911 29.9718 31.6637 29.8396 31.9491L29.589 32.4572L28.8372 30.7449C28.4196 29.8052 28.0715 29.0326 28.0576 29.0326C28.0507 29.0326 28.0089 29.1996 27.9671 29.3945Z" fill="#EC025D"/>
<path d="M8.47009 30.6753C8.1499 31.5315 7.86451 32.2345 7.84363 32.2345C7.82274 32.2345 7.55824 31.5871 7.25196 30.7867L6.68815 29.3458L6.32619 29.3249C6.13129 29.311 5.96423 29.3179 5.96423 29.3388C5.96423 29.4154 7.78794 33.9399 7.83666 33.9886C7.85755 34.0164 8.01764 33.6754 8.1847 33.2229C8.90861 31.2739 9.04087 30.9607 9.10351 31.0651C9.13832 31.1208 9.38194 31.789 9.66037 32.5547C9.93184 33.3134 10.1755 33.9607 10.2033 33.9886C10.2381 34.0303 11.7416 30.5709 12.215 29.3667C12.2289 29.3388 12.0757 29.311 11.8669 29.311H11.498L11.0177 30.4734C10.259 32.325 10.2799 32.2832 10.2103 32.1649C10.1824 32.1092 9.92488 31.434 9.65341 30.6683C9.37498 29.9026 9.13136 29.2414 9.10351 29.1927C9.08263 29.1509 8.79724 29.8122 8.47009 30.6753Z" fill="#EC025D"/>
<path d="M13.4818 31.2739C12.9249 32.4642 12.4377 33.5292 12.3889 33.6405L12.3054 33.8354H12.6674H13.0363L13.2869 33.2786L13.5375 32.7217H14.512H15.4865L15.7162 33.2786L15.9459 33.8354H16.3218C16.5236 33.8354 16.6837 33.8076 16.6698 33.7728C16.4958 33.3273 14.5607 29.1022 14.5328 29.1022C14.512 29.1022 14.0386 30.0836 13.4818 31.2739ZM14.86 31.3087C15.0201 31.6846 15.1524 32.0117 15.1524 32.0396C15.1524 32.0744 14.853 32.0953 14.4841 32.0953C14.1152 32.0953 13.8298 32.0674 13.8437 32.0396C13.9899 31.6637 14.4911 30.6335 14.5259 30.6335C14.5468 30.6335 14.6999 30.9398 14.86 31.3087Z" fill="#EC025D"/>
<path d="M44.7355 31.3783C44.1508 32.6382 43.6566 33.7032 43.6426 33.745C43.6148 33.8146 43.7053 33.8354 43.9698 33.8354H44.3318L44.5823 33.2786L44.8329 32.7217H45.8005H46.761L47.0116 33.2786L47.2622 33.8354H47.6311H48L47.7703 33.3273C47.6451 33.0558 47.1717 31.9909 46.7123 30.9676C46.2599 29.9444 45.8631 29.1022 45.8422 29.1022C45.8213 29.1022 45.3202 30.1254 44.7355 31.3783ZM46.1903 31.3853C46.3504 31.7403 46.4757 32.0465 46.4757 32.0605C46.4757 32.0813 46.1763 32.0953 45.8144 32.0953C45.4524 32.0953 45.1531 32.0813 45.1531 32.0674C45.1531 32.0326 45.2923 31.7124 45.6056 31.0233C45.71 30.7867 45.8144 30.6405 45.8492 30.6753C45.884 30.7101 46.0371 31.0303 46.1903 31.3853Z" fill="#EC025D"/>
<path d="M0.848138 29.3597C0.736767 29.4154 0.562749 29.5337 0.47226 29.6173C0.0267744 30.014 -0.00802915 30.8632 0.402653 31.3017L0.541867 31.4479L0.333046 31.6567C-0.0637148 32.0605 -0.11244 32.7844 0.221674 33.2925C0.527946 33.7519 1.25186 34.0025 1.83656 33.8424C2.81802 33.5779 3.15213 32.3389 2.44214 31.6011L2.27508 31.427L2.4491 31.26C2.97116 30.7658 2.74145 29.6938 2.04538 29.3736C1.69038 29.2135 1.13353 29.2066 0.848138 29.3597ZM1.88528 30.0488C2.15675 30.3273 2.14283 30.7658 1.85048 31.0094C1.49548 31.3087 1.03608 31.2113 0.820295 30.7936C0.688042 30.5361 0.729806 30.2855 0.945588 30.0697C1.22402 29.7982 1.62078 29.7843 1.88528 30.0488ZM1.71823 31.8516C1.99666 31.9978 2.13587 32.2206 2.13587 32.5338C2.13587 32.9097 1.77391 33.2786 1.405 33.2786C1.20313 33.2786 1.09176 33.2229 0.910785 33.0419C0.514024 32.6452 0.611474 32.0674 1.11961 31.8447C1.39803 31.7264 1.4746 31.7264 1.71823 31.8516Z" fill="#EC025D"/>
<path d="M21.7512 29.3806C21.0412 29.7565 20.8811 30.6405 21.431 31.1695C21.5563 31.2878 21.9321 31.5106 22.2593 31.6637C22.9206 31.963 23.0876 32.137 23.0876 32.5199C23.0876 33.0698 22.5238 33.4108 22.0226 33.1742C21.7999 33.0698 21.7303 32.9723 21.598 32.5616C21.5632 32.4572 21.5145 32.4433 21.2987 32.4851C21.1525 32.5129 21.0133 32.5477 20.9855 32.5616C20.888 32.6104 20.9228 32.861 21.069 33.1324C21.7024 34.3853 23.6514 34.0164 23.7698 32.6243C23.7837 32.4224 23.7628 32.137 23.721 32.0048C23.6166 31.7055 23.2408 31.3574 22.8162 31.1765C22.0574 30.8493 21.9182 30.7658 21.8347 30.5709C21.6885 30.2159 22.0018 29.8678 22.4681 29.8678C22.663 29.8678 22.7814 29.9166 22.9414 30.0836L23.1572 30.2994L23.4009 30.1463C23.5331 30.0627 23.6445 29.9792 23.6445 29.9583C23.6445 29.84 23.3104 29.4989 23.0876 29.3806C22.7257 29.1996 22.0992 29.1996 21.7512 29.3806Z" fill="#EC025D"/>
<path d="M16.7743 29.4084C16.7952 29.4641 17.1154 30.0349 17.4773 30.6683L18.1456 31.8308V32.8331V33.8354H18.4936H18.8416V32.8679V31.8934L19.5725 30.6335C19.9762 29.9375 20.3034 29.3528 20.3034 29.3388C20.3034 29.3249 20.1363 29.311 19.9275 29.311H19.5516L19.0505 30.1811C18.772 30.6614 18.5214 31.0372 18.4936 31.0164C18.4658 30.9955 18.2291 30.6057 17.9646 30.1463L17.4913 29.311H17.1154C16.8161 29.311 16.7465 29.3319 16.7743 29.4084Z" fill="#EC025D"/>
<path d="M33.3894 31.5732V33.8354H34.6423H35.8953V33.5222V33.209H34.9904H34.0855V32.4433V31.6776H34.9556H35.8257V31.3644V31.0512H34.9556H34.0855V30.4943V29.9375H34.9904H35.8953V29.6242V29.311H34.6423H33.3894V31.5732Z" fill="#EC025D"/>
<path d="M37.2179 31.5732V33.8563L38.1158 33.8215C39.1599 33.7798 39.5776 33.6336 40.0718 33.1394C40.5173 32.6939 40.6565 32.318 40.6634 31.5732C40.6634 30.8215 40.5034 30.3969 40.0509 29.9514C39.5637 29.4711 39.2087 29.3597 38.1437 29.3249L37.2179 29.2971V31.5732ZM39.153 30.1393C39.849 30.4943 40.1623 31.2948 39.9256 32.1022C39.7377 32.7148 39.1947 33.0907 38.3873 33.1742L37.914 33.2229V31.5732V29.9166L38.3943 29.9583C38.6657 29.9792 38.9998 30.0627 39.153 30.1393Z" fill="#EC025D"/>
<path d="M41.9512 31.5732V33.8354H42.2992H42.6472V31.5732V29.311H42.2992H41.9512V31.5732Z" fill="#EC025D"/>
</svg>
