<svg width="48" height="42" viewBox="0 0 48 42" fill="none" xmlns="http://www.w3.org/2000/svg">
<path d="M3.80264 1.05513C1.56798 1.05376 0.143771 2.48263 0.0974139 4.71681C0 9.41172 0 7.94651 0 21.3551V36.5559C0 39.3257 2.23031 41.579 5 41.6075V41.6075C8.20481 41.6075 11.2299 41.569 24.2567 41.5818L41.9407 41.601C45.2525 41.6046 47.9409 38.9242 47.9472 35.6124L47.9743 21.3037L47.9924 7.02096C47.9966 3.69908 45.3009 1.006 41.979 1.0134L24.9369 1.05133C12.2439 1.06416 6.60267 0.987162 6.5 0.999996C6.39733 1.01283 9.1016 0.98716 5.5 1.05133C5.25546 1.05562 4.58706 1.05561 3.80264 1.05513ZM39.2086 6.91657C39.6449 7.21176 40.1711 8.09732 40.1711 8.53368C40.1711 8.63636 39.9658 9.02139 39.7219 9.39358C39.4781 9.76577 39.2727 10.0995 39.2727 10.138C39.2727 10.1765 39.5037 10.369 39.7861 10.5615C40.3508 10.9594 40.4406 11.3187 40.0813 11.7679C39.8759 11.9989 39.6963 12.0374 38.631 12.0503C37.9636 12.0631 37.2578 12.0631 37.0652 12.0503C36.3465 12.0246 35.9358 11.1775 36.4235 10.7412C36.6931 10.4973 37.8995 9.11122 38.0021 8.90588C38.0535 8.82887 38.1305 8.63636 38.169 8.46951C38.246 8.25133 38.2075 8.18716 38.0278 8.18716C37.8995 8.18716 37.6813 8.277 37.5529 8.37967C37.1808 8.66203 36.8727 8.61069 36.5005 8.25133C36.1412 7.87914 36.1668 7.54545 36.616 7.05775C37.1679 6.45454 38.4257 6.39037 39.2086 6.91657ZM31.3283 9.56042C31.431 9.63743 31.6492 9.7401 31.8032 9.79144C32.3808 9.95828 33.2278 10.6385 33.8054 11.37C34.1262 11.7679 34.3957 12.1658 34.3957 12.2299C34.3957 12.3069 34.5112 12.5765 34.6524 12.846C34.8834 13.2823 34.9091 13.5647 34.9091 16.0674C34.9091 17.5818 34.9604 18.9551 35.0374 19.1219C35.2941 19.7508 35.6021 19.9946 36.2952 20.1102C37.2834 20.2642 37.6043 20.6107 37.6043 21.5476C37.6043 22.215 37.5658 22.3176 37.2064 22.6128C36.9497 22.831 36.6545 22.9465 36.385 22.9465C36.0513 22.9465 35.8203 23.062 35.4225 23.4342V23.4342C35.0942 23.7543 34.9091 24.1933 34.9091 24.6517V26.8481C34.9091 29.1198 34.8706 29.8513 34.7294 30.108C34.6267 30.3005 34.4214 30.7112 34.2674 31.0321C33.5743 32.4695 31.3155 33.8941 29.6856 33.9198C29.1209 33.9198 28.9668 33.8684 28.6332 33.5476C27.5422 32.508 28.2481 30.9037 29.7882 30.9037C30.2631 30.9037 30.4941 30.8139 30.9818 30.4545C32.0599 29.6203 32.1241 29.3765 32.1754 25.7957C32.2139 22.831 32.2267 22.6513 32.4963 22.3048C32.6503 22.0866 32.8813 21.8941 33.0096 21.8428C33.3433 21.7401 33.3048 21.6246 32.7273 21.0086C32.2652 20.5209 32.2139 20.3797 32.2139 19.8021C32.2139 19.4556 32.2011 18.031 32.1754 16.6577C32.1497 14.3861 32.1112 14.1037 31.8674 13.6417C31.3925 12.7433 30.6096 12.2428 29.4417 12.0888C28.877 12.0246 28.6845 11.9348 28.415 11.6139C27.7348 10.8053 28.2481 9.40641 29.262 9.31657C29.9422 9.2524 31.1358 9.39358 31.3283 9.56042ZM12.7444 9.59893C13.9508 10.5615 13.0139 12.384 11.461 12.0888C11.1401 12.0246 10.9091 11.8578 10.6396 11.4856C10.1647 10.831 10.1775 10.5358 10.6524 9.88128C11.0246 9.36791 11.0631 9.34224 11.7305 9.34224C12.2182 9.34224 12.5005 9.41925 12.7444 9.59893ZM25.1551 9.72727C25.5914 10.292 25.6171 10.8182 25.2321 11.3957C24.8984 11.9091 24.3465 12.1658 23.5765 12.1658C23.1914 12.1658 22.2545 12.8075 21.8182 13.3594C21.5743 13.6674 21.5615 13.9754 21.5615 21.7401C21.5487 29.7102 21.5487 29.8 21.2791 30.262C20.8941 30.9037 20.5348 31.1604 20.0214 31.1604C19.5465 31.1604 19.0845 30.9166 18.7123 30.4545C18.4685 30.1594 18.4299 28.2471 18.4685 19.4299C18.4941 13.9241 18.5455 13.3594 19.1102 12.2556C19.5722 11.3444 20.9583 10.0225 21.6898 9.79144C21.8695 9.7401 22.1262 9.61176 22.2674 9.50909C22.4599 9.38074 22.8321 9.34224 23.7176 9.36791C24.8214 9.40641 24.9369 9.43208 25.1551 9.72727ZM12.8471 15.0663C13.2834 15.4898 13.3604 15.8492 13.4246 17.8128C13.4759 19.7251 13.3091 20.3797 12.5519 21.0984C12.0385 21.5733 11.9487 21.7914 12.231 21.7914C12.5005 21.7914 13.0524 22.4588 13.2193 22.9979C13.3219 23.3187 13.3861 24.4866 13.3989 26.3989L13.409 28.6833C13.4108 29.0841 13.5374 29.4744 13.7711 29.8V29.8C14.2332 30.4674 14.9775 30.9037 15.6449 30.9037C16.1455 30.9037 17.031 31.3658 17.1337 31.6738C17.1722 31.815 17.2749 31.9305 17.339 31.9305C17.5572 31.9305 17.4545 32.662 17.1594 33.0984C16.646 33.8813 15.4267 34.2406 14.8364 33.7914C14.6952 33.6888 14.477 33.5989 14.3615 33.5989C13.8995 33.5989 12.4492 32.7904 12.0385 32.3155C11.2813 31.4299 10.8193 30.7112 10.7166 30.262C10.6652 30.0182 10.5369 29.6973 10.4471 29.5561C10.3059 29.3636 10.2674 28.6706 10.2674 26.5401C10.2674 25.0257 10.216 23.7166 10.1647 23.6524C9.98503 23.3957 9.09947 22.9465 8.76578 22.9465C8.56043 22.9465 8.29091 22.7797 8.00856 22.4717C7.44385 21.8684 7.43102 21.3807 7.95722 20.6749C8.30374 20.2128 8.43209 20.1358 9.02246 20.0588C9.42032 19.9946 9.80535 19.8535 9.97219 19.6866C10.2417 19.4299 10.2674 19.3144 10.2674 17.6203C10.2674 15.9005 10.2802 15.7979 10.6011 15.3358C10.7807 15.0663 11.0503 14.7968 11.2043 14.7326C11.6535 14.5401 12.4749 14.7069 12.8471 15.0663ZM30.584 20.508C31.0717 21.0471 31.0717 21.984 30.5968 22.5487V22.5487C30.3853 22.8009 30.073 22.9465 29.7438 22.9465H26.8364C23.0118 22.9465 22.9604 22.9337 22.7294 22.0738C22.5754 21.5091 22.7166 20.7262 23.0374 20.3797C23.2428 20.1615 23.4866 20.123 25.1422 20.0973C26.169 20.0717 27.7348 20.0717 28.6203 20.0845L29.6885 20.1016C30.0305 20.1071 30.3547 20.2542 30.584 20.508V20.508Z" fill="black"/>
</svg>
