<svg width="36" height="36" viewBox="0 0 36 36" fill="none" xmlns="http://www.w3.org/2000/svg">
<path d="M17.265 0.699153C13.1932 0.890606 9.46326 2.39146 6.43078 5.05471C5.91113 5.50941 5.02566 6.41539 4.59489 6.93163C1.22737 10.9521 -0.15725 16.2137 0.78634 21.3795C1.25814 23.9641 2.3795 26.5282 3.97267 28.6581C4.92993 29.9436 6.14361 31.1607 7.43933 32.1487C11.0769 34.9077 15.6718 36.1282 20.2393 35.547C25.5556 34.8667 30.2667 31.7795 33.0359 27.1539C33.1932 26.8906 33.4804 26.3573 33.6752 25.9675C34.718 23.8821 35.3094 21.6701 35.4701 19.2906C35.4906 18.9692 35.5043 15.3966 35.5043 9.72479V0.675222L26.4889 0.682059C21.5282 0.685478 17.3778 0.692316 17.265 0.699153ZM14.2154 11.3932C15.5522 11.5675 16.7829 12.1761 17.7368 13.1368L18 13.4034L18.2633 13.1368C19.4051 11.988 20.9539 11.3419 22.5641 11.3419C25.7333 11.3419 28.3556 13.759 28.6291 16.9316C28.6769 17.4581 28.6769 21.9539 28.6325 22.2308C28.5607 22.665 28.2701 23.0889 27.8804 23.318C27.5351 23.5197 26.9778 23.5675 26.6154 23.4239C26.2154 23.2701 25.8701 22.935 25.7163 22.5556C25.641 22.3675 25.641 22.3607 25.6205 19.6838C25.6034 17.0547 25.6 16.9932 25.5248 16.7094C25.1487 15.2667 23.8701 14.3162 22.4103 14.3949C21.1145 14.4667 20.0718 15.2769 19.6547 16.5385L19.5556 16.8291L19.5385 19.547C19.5145 22.5795 19.5282 22.4154 19.2718 22.8154C19.0564 23.1504 18.7624 23.3624 18.3932 23.4581C17.7402 23.6291 17.094 23.3795 16.7282 22.8154C16.4718 22.4154 16.4855 22.5795 16.4616 19.547L16.4445 16.8291L16.3453 16.5385C15.9282 15.2769 14.8855 14.4667 13.5898 14.3949C12.1299 14.3162 10.8513 15.2667 10.4752 16.7094C10.4 16.9932 10.3966 17.0547 10.3795 19.6838C10.359 22.3607 10.359 22.3675 10.2838 22.5556C10.1299 22.935 9.78463 23.2701 9.38463 23.4239C9.02224 23.5675 8.46497 23.5197 8.11967 23.318C7.72993 23.0889 7.43933 22.665 7.36754 22.2308C7.32309 21.9539 7.32309 17.4581 7.37096 16.9316C7.53848 14.9829 8.58805 13.2735 10.2428 12.2479C11.4188 11.5162 12.8376 11.212 14.2154 11.3932Z" fill="#F0002D"/>
</svg>
