<svg width="48" height="48" viewBox="0 0 48 48" fill="none" xmlns="http://www.w3.org/2000/svg">
<path fill-rule="evenodd" clip-rule="evenodd" d="M27.8462 8.59561C27.7836 8.62069 27.6705 8.69329 27.5948 8.75701C27.4513 8.87773 27.0249 9.02401 26.8165 9.02401C26.7247 9.02401 26.6749 9.06709 26.6079 9.20401C26.5446 9.33361 26.4729 9.39889 26.352 9.43741C26.2351 9.47461 26.1603 9.54025 26.1063 9.65341C26.0611 9.74821 25.9523 9.85669 25.8453 9.91369C25.7268 9.97681 25.6494 10.0584 25.6263 10.1447C25.5767 10.3304 25.5045 10.4047 25.3386 10.4412C25.2305 10.465 25.1779 10.5173 25.1221 10.6566C25.0662 10.7964 25.0034 10.8587 24.8603 10.9159C24.6077 11.017 24.6105 11.0245 25.092 11.5183C25.323 11.7552 25.7172 12.1676 25.968 12.4348C26.2188 12.7019 26.5356 12.9936 26.6719 13.0831C26.8082 13.1725 26.9666 13.3115 27.0239 13.3919C27.0811 13.4723 27.2025 13.5692 27.2937 13.6073C27.4058 13.6541 27.4823 13.7312 27.53 13.8455C27.5766 13.957 27.6639 14.0466 27.7869 14.1095C27.9075 14.1709 27.9913 14.2558 28.0241 14.3497C28.0559 14.441 28.1358 14.5242 28.2391 14.5734C28.35 14.6263 28.4465 14.732 28.5353 14.8979C28.6842 15.1763 29.3425 15.8448 29.6556 16.0357C29.7697 16.1053 29.9037 16.2292 29.9535 16.311C30.0032 16.3927 30.1237 16.5006 30.2214 16.5506C30.3261 16.6044 30.4303 16.7083 30.4757 16.8046C30.521 16.9004 30.6195 16.999 30.7157 17.0443C30.8118 17.0898 30.9102 17.1882 30.9557 17.2843C31.0009 17.3803 31.0995 17.479 31.1952 17.5242C31.2846 17.5663 31.3946 17.6724 31.4399 17.7598C31.4851 17.8471 31.6058 17.9755 31.7082 18.0451C31.9467 18.2071 32.0861 18.547 32.0437 18.864C32.0118 19.1041 31.7961 19.584 31.7202 19.584C31.6571 19.584 31.5407 19.698 27.7418 23.476L24.5283 26.6718L24.6051 26.932C24.695 27.2366 24.6716 27.204 24.8721 27.3042C24.9601 27.3481 25.0679 27.4559 25.1118 27.5437C25.1557 27.6317 25.2637 27.7415 25.3518 27.7878C25.4399 27.8342 25.5492 27.9448 25.5945 28.0334C25.6415 28.1251 25.7517 28.2311 25.8499 28.2788C25.9449 28.3252 26.1048 28.4371 26.2051 28.5277C26.3054 28.6183 26.5145 28.7382 26.6697 28.7941C26.8249 28.8502 27.0816 28.9661 27.24 29.052L27.528 29.208H28.416H29.304L29.616 29.0342C29.7876 28.9387 30.0451 28.8223 30.1881 28.7756C30.3367 28.7273 30.5325 28.6135 30.6441 28.5108C30.7519 28.4118 30.9173 28.2986 31.0117 28.2593C31.1217 28.2134 31.2053 28.1352 31.2441 28.0414C31.2775 27.9608 31.3892 27.839 31.4924 27.7708C31.5955 27.7025 31.68 27.6168 31.68 27.5803C31.68 27.5198 31.9473 27.2515 32.0493 27.2095C32.0729 27.1999 32.1399 27.1135 32.1985 27.0176C32.2569 26.9218 32.366 26.818 32.4408 26.787C32.5172 26.7553 32.6115 26.6576 32.6563 26.5637C32.7001 26.4719 32.8103 26.353 32.901 26.2994C32.9917 26.2458 33.1101 26.1274 33.164 26.036C33.2179 25.9447 33.3345 25.8271 33.4233 25.7747C33.5121 25.7224 33.6098 25.6246 33.6404 25.5574C33.6714 25.4894 33.7825 25.3966 33.891 25.348C34.0172 25.2914 34.1144 25.2037 34.1669 25.0986C34.2115 25.0094 34.316 24.8932 34.3993 24.8402C34.4825 24.7873 34.5797 24.6796 34.6153 24.6008C34.6508 24.5221 34.7515 24.41 34.8389 24.3517C34.9262 24.2934 35.0459 24.1742 35.1047 24.0869C35.1635 23.9995 35.2797 23.8848 35.363 23.832C35.4464 23.7792 35.5409 23.6747 35.5729 23.5997C35.6049 23.5247 35.7128 23.4094 35.8124 23.3434C35.912 23.2775 36.0137 23.1656 36.0384 23.0951C36.1027 22.9104 36.4085 22.5654 36.8105 22.224C36.8882 22.158 37.0166 22.0066 37.0958 21.8875C37.175 21.7685 37.3055 21.6126 37.3856 21.5412C37.4658 21.4698 37.5546 21.3254 37.5829 21.2202C37.6151 21.1004 37.6963 20.9779 37.8003 20.8922C38.0773 20.6639 38.2691 19.3504 38.1596 18.4308C38.0707 17.6844 38.0019 17.3528 37.9159 17.256C37.8063 17.1326 37.5361 16.5614 37.536 16.4531C37.536 16.4075 37.4853 16.337 37.4235 16.2966C37.3617 16.256 37.2511 16.1042 37.1777 15.9592C37.0496 15.7061 36.24 14.8538 34.7984 13.4549C34.5485 13.2124 34.1613 12.829 33.9381 12.6029C33.7149 12.3769 33.5051 12.192 33.4718 12.192C33.4385 12.192 33.3441 12.1264 33.2622 12.0462C33.1801 11.966 33.0297 11.867 32.9279 11.8264C32.7996 11.775 32.7276 11.709 32.6936 11.6114C32.6666 11.534 32.6057 11.459 32.5583 11.4448C32.3376 11.3783 32.2281 11.2891 32.1779 11.1352C32.1347 11.0024 32.0918 10.963 31.9631 10.9366C31.7903 10.9012 31.632 10.7452 31.632 10.6099C31.632 10.5575 31.562 10.4992 31.4435 10.4525C31.2873 10.3912 31.2447 10.3445 31.1955 10.1802C31.1505 10.0298 31.1061 9.97477 31.0121 9.95245C30.8418 9.91213 30.7308 9.80653 30.6969 9.65257C30.6741 9.54865 30.6272 9.51193 30.4602 9.46729C30.2814 9.41941 30.2408 9.38401 30.1743 9.21781C30.1085 9.05317 30.0756 9.02401 29.9561 9.02401C29.7027 9.02401 29.3257 8.91265 29.2178 8.80597C28.968 8.55901 28.2231 8.44477 27.8462 8.59561ZM21.4725 35.0951C21.2258 35.1505 21.12 35.3392 21.12 35.7238C21.12 36.0416 21.1911 36.1184 21.5262 36.162C22.275 36.2593 22.6196 35.6479 22.056 35.2219C21.8012 35.0293 21.783 35.0254 21.4725 35.0951ZM16.1286 35.2096C16.0101 35.2464 15.8859 35.3138 15.8526 35.3594C15.7655 35.4786 15.7656 41.6818 15.8527 41.8516C16.0094 42.1568 17.7261 42.3517 18.5821 42.1613C19.1673 42.0311 19.3373 41.9203 19.5764 41.5129C19.6905 41.3189 19.8236 41.0952 19.8722 41.016C20.0541 40.7201 20.1092 39.1358 19.9615 38.448C19.9224 38.2657 19.7807 37.9865 19.4621 37.464C19.4299 37.4112 19.266 37.3183 19.0977 37.2576C18.9296 37.1969 18.6779 37.1027 18.5384 37.0483C18.365 36.9808 18.108 36.9386 17.7259 36.9154L17.1671 36.881L17.0075 36.6966C16.8483 36.5124 16.848 36.5108 16.848 36.001C16.848 35.5054 16.844 35.4863 16.716 35.3669C16.5984 35.2572 16.3999 35.1306 16.3591 35.1392C16.3508 35.1409 16.247 35.1726 16.1286 35.2096ZM23.6443 35.2837L23.52 35.4313L23.5207 38.5837C23.5215 42.4243 23.412 42.0354 24.5319 42.1723C26.1722 42.3728 27.0576 42.0965 27.4677 41.256C27.5322 41.124 27.6215 40.9475 27.6661 40.8637C28.08 40.0878 27.8037 38.1779 27.1837 37.5278C26.9039 37.2346 26.1542 36.9674 25.4666 36.9162C24.6343 36.854 24.576 36.7969 24.576 36.0445C24.576 35.355 24.4439 35.136 24.0279 35.136C23.7972 35.136 23.7548 35.1523 23.6443 35.2837ZM28.9955 35.3149L28.848 35.4938V38.6732V41.8526L28.9914 42.0161C29.1935 42.2461 29.553 42.2624 29.7644 42.0509L29.904 41.9114V38.6843V35.4571L29.7816 35.2966C29.5923 35.0484 29.2077 35.0574 28.9955 35.3149ZM3.49787 35.3762C3.23459 35.5154 3.24143 35.429 3.22595 38.7716L3.21143 41.9033L3.43463 42.0448C3.63035 42.1688 3.68831 42.183 3.90491 42.1594C4.36367 42.1092 4.34051 42.2093 4.36799 40.1628C4.39079 38.4698 4.39715 38.3672 4.49063 38.208C4.63163 37.968 4.69979 37.9964 4.89335 38.376C4.98755 38.5608 5.12135 38.7876 5.19083 38.88C5.26019 38.9724 5.36111 39.1358 5.41499 39.2432C5.55743 39.527 5.60555 39.5507 6.10427 39.5834C6.70055 39.6227 7.02263 39.4104 7.24499 38.832C7.53155 38.0864 7.60103 38.0102 7.77323 38.2522C7.93727 38.4824 7.96799 38.82 7.96799 40.3894C7.96799 41.5142 7.98299 41.9062 8.02823 41.9681C8.19575 42.1972 8.86295 42.2065 9.10991 41.9831L9.21983 41.8837L9.20591 38.7091C9.19019 35.1192 9.22955 35.4166 8.75831 35.3276C8.02895 35.1901 7.73219 35.4084 7.40831 36.3205C7.33715 36.5209 7.22951 36.7438 7.16891 36.8156C7.10843 36.8876 6.99575 37.1102 6.91871 37.3103C6.77111 37.6936 6.45515 38.1208 6.23495 38.2346C6.08399 38.3126 5.98583 38.2295 5.80643 37.872C5.74691 37.7532 5.64671 37.5884 5.58371 37.5058C5.52083 37.4231 5.41655 37.2208 5.35199 37.056C5.28743 36.8912 5.17091 36.6565 5.09291 36.5342C5.01503 36.412 4.90763 36.1963 4.85423 36.0548C4.59239 35.3604 4.04555 35.0868 3.49787 35.3762ZM12.168 36.9584C10.7221 37.2583 10.2578 38.0148 10.3406 39.936C10.3823 40.9037 10.5215 41.2802 11.021 41.7768C11.4312 42.1844 12.4413 42.3544 13.2326 42.1488C13.9766 41.9556 14.543 41.2714 14.6438 40.444C14.8411 38.825 14.4987 37.6429 13.7349 37.3051C13.6123 37.2509 13.3861 37.1514 13.2323 37.0842C12.9242 36.9496 12.4699 36.8959 12.168 36.9584ZM32.664 36.9562C31.781 37.1324 31.404 37.3781 31.4869 37.7232C31.5563 38.0128 31.608 38.0236 32.208 37.8745C33.2258 37.6218 33.888 37.9226 33.888 38.6377C33.888 39.112 33.7356 39.2076 32.9739 39.2117C31.92 39.2172 31.5923 39.3788 31.2223 40.0758C30.8598 40.7584 31.1876 41.8066 31.8402 42.0509C32.5655 42.3226 34.1725 42.305 34.7814 42.0187C35.0912 41.873 35.087 41.9012 35.0876 39.9521L35.088 38.5042L34.9434 38.1281C34.6749 37.4303 34.6448 37.3961 34.0933 37.1634C33.5717 36.9434 33.0829 36.8725 32.664 36.9562ZM37.488 37.0302C37.2372 37.0954 36.8966 37.1734 36.7311 37.2035C36.2577 37.2895 36.288 37.1188 36.288 39.7088V41.9563L36.4058 42.0742C36.5833 42.2516 36.9272 42.24 37.1928 42.0476L37.392 41.9034V40.1611V38.4188L37.533 38.1965C37.9236 37.5805 39.1465 37.7417 39.288 38.4277C39.3012 38.4917 39.3219 38.5932 39.3342 38.6532C39.3464 38.7133 39.3589 39.4504 39.362 40.2912C39.365 41.132 39.3799 41.8522 39.395 41.8915C39.4929 42.1465 40.1796 42.2161 40.4427 41.9977C40.5459 41.912 40.5446 38.6228 40.4413 38.2768C40.3065 37.8256 40.0387 37.39 39.8462 37.3088C38.8681 36.8963 38.2733 36.826 37.488 37.0302ZM43.368 36.9611C43.0484 37.0345 42.3191 37.3308 42.2281 37.4243C41.6976 37.9694 41.6214 38.198 41.5935 39.3293C41.5457 41.2778 41.8871 41.9256 43.0939 42.1756C43.8224 42.3265 44.8199 42.1456 44.9252 41.8433C45.1099 41.3135 45.0281 41.256 44.088 41.256C43.0599 41.256 42.7728 41.0389 42.6613 40.1778C42.4382 38.4521 43.1037 37.563 44.3558 37.9144C44.888 38.0636 44.9747 38.0102 44.9757 37.5314C44.9765 37.2074 43.923 36.8338 43.368 36.9611ZM21.5237 37.067C21.1092 37.1381 21.12 37.068 21.12 39.6709V41.8986L21.228 42.0166C21.4127 42.2182 21.7789 42.2256 22.0663 42.0335L22.296 41.88L22.3101 39.6764L22.3242 37.473L22.1661 37.3084C21.9306 37.0633 21.8101 37.018 21.5237 37.067ZM18.113 37.828C18.4106 37.9105 18.684 38.2021 18.8631 38.628L19.0196 39L18.9956 39.696C18.9543 40.8858 18.6733 41.2745 17.8214 41.3191C17.3592 41.3435 17.1993 41.2928 16.9917 41.0564L16.848 40.8926L16.8506 39.6583C16.8546 37.851 17.0702 37.5384 18.113 37.828ZM25.9155 37.8697C26.1373 37.9829 26.3846 38.1856 26.45 38.3078C26.706 38.786 26.6202 40.8456 26.3343 41.0827C25.9255 41.4221 24.9033 41.39 24.6511 41.0299C24.5444 40.8775 24.5393 38.4516 24.6452 38.198C24.8102 37.803 25.457 37.6358 25.9155 37.8697ZM12.7801 37.9196C13.0938 38.037 13.3355 38.2816 13.5098 38.6579C13.7005 39.0696 13.6836 40.2852 13.4828 40.5883C13.4139 40.6922 13.3423 40.8256 13.3236 40.8847C13.2143 41.229 12.3651 41.4029 11.9661 41.1625C11.6322 40.9613 11.4113 40.3924 11.3868 39.6702L11.3654 39.0443L11.5589 38.6352C11.777 38.1739 11.8101 38.1383 12.1861 37.9601C12.5191 37.8023 12.4746 37.8054 12.7801 37.9196ZM33.702 40.02C34.1687 40.5337 33.9219 41.4522 33.3105 41.4767C32.3984 41.5133 31.8434 40.7628 32.364 40.197C32.6557 39.88 33.4761 39.7715 33.702 40.02Z" fill="#CAD699"/>
<path fill-rule="evenodd" clip-rule="evenodd" d="M4.704 0.11292C4.704 0.22044 4.68408 0.22728 4.284 0.25704C3.83076 0.29076 3.696 0.36924 3.696 0.59904C3.696 0.69096 3.6648 0.71112 3.492 0.73104C3.1818 0.76692 2.91504 0.91236 2.832 1.09092C2.76588 1.23324 2.7414 1.24596 2.53368 1.24692C2.28048 1.24812 2.208 1.32252 2.208 1.58088C2.208 1.71924 2.19708 1.728 2.0256 1.728C1.79568 1.728 1.728 1.79568 1.728 2.0256C1.728 2.19708 1.71924 2.208 1.58088 2.208C1.38816 2.208 1.24092 2.28972 1.251 2.391C1.27836 2.66616 1.24392 2.76096 1.09092 2.832C0.90732 2.91732 0.72708 3.24924 0.72288 3.50988C0.72012 3.67416 0.70968 3.68544 0.53328 3.71364C0.31044 3.74928 0.297 3.7776 0.25692 4.29996C0.2274 4.68336 0.22008 4.704 0.11292 4.704H0V24V43.296H0.1128C0.2208 43.296 0.22692 43.3148 0.2568 43.74C0.29088 44.2247 0.33708 44.304 0.58512 44.304C0.70824 44.304 0.72036 44.3196 0.72384 44.484C0.73152 44.8418 0.86928 45.138 1.056 45.198C1.21044 45.2477 1.2252 45.2689 1.23828 45.462C1.25472 45.705 1.34136 45.792 1.5666 45.792C1.71888 45.792 1.72308 45.7978 1.73736 46.02L1.752 46.248L1.98 46.2626C2.20224 46.2769 2.208 46.2811 2.208 46.4334C2.208 46.6586 2.295 46.7453 2.538 46.7617C2.73108 46.7748 2.75232 46.7896 2.802 46.944C2.862 47.1307 3.15816 47.2685 3.516 47.2762C3.6804 47.2796 3.696 47.2918 3.696 47.4149C3.696 47.6629 3.77532 47.7091 4.26 47.7432C4.68516 47.7731 4.704 47.7792 4.704 47.8872V48H24H43.296V47.8871C43.296 47.7799 43.3166 47.7726 43.7 47.7431C44.2224 47.703 44.2507 47.6896 44.2864 47.4667C44.3146 47.2903 44.3258 47.2799 44.4901 47.2771C44.7508 47.2729 45.0827 47.0927 45.168 46.9091C45.2341 46.7668 45.2586 46.754 45.4663 46.7531C45.7195 46.7519 45.792 46.6775 45.792 46.4191C45.792 46.2808 45.8029 46.272 45.9744 46.272C46.0747 46.272 46.1827 46.2461 46.2144 46.2144C46.2461 46.1827 46.272 46.0747 46.272 45.9744C46.272 45.8029 46.2808 45.792 46.4191 45.792C46.6775 45.792 46.7519 45.7195 46.7531 45.4663C46.754 45.2586 46.7668 45.2341 46.9091 45.168C47.0944 45.082 47.273 44.7499 47.2771 44.484C47.2796 44.327 47.2946 44.304 47.3947 44.304C47.631 44.304 47.709 44.1724 47.743 43.716C47.7727 43.3159 47.7796 43.296 47.8871 43.296H48V24.024V4.752H47.8872C47.7793 4.752 47.7731 4.73292 47.7432 4.31292C47.708 3.81768 47.675 3.75468 47.4298 3.7152C47.2631 3.68844 47.2559 3.6792 47.2529 3.48768C47.2492 3.24888 47.0759 2.95848 46.884 2.86968C46.785 2.82384 46.7508 2.77248 46.7473 2.66424C46.7356 2.307 46.7282 2.28 46.6445 2.2866C46.5986 2.2902 46.5728 2.274 46.5874 2.2506C46.6019 2.2272 46.5368 2.208 46.4429 2.208C46.277 2.208 46.272 2.2026 46.272 2.0256C46.272 1.79568 46.2043 1.728 45.9744 1.728C45.7974 1.728 45.792 1.72296 45.792 1.55712C45.792 1.46316 45.7728 1.39812 45.7494 1.41264C45.726 1.42716 45.7098 1.40136 45.7134 1.35552C45.72 1.27176 45.693 1.26444 45.3358 1.25268C45.2275 1.2492 45.1762 1.215 45.1303 1.116C45.0415 0.92412 44.7511 0.75084 44.5123 0.74712C44.3208 0.74412 44.3116 0.73692 44.2848 0.57024C44.2458 0.32748 44.1847 0.29412 43.7122 0.25788C43.3163 0.2274 43.296 0.22032 43.296 0.11292V0H24H4.704V0.11292ZM45.0104 1.22952C44.9638 1.2762 44.832 1.15356 44.832 1.06344C44.832 1.00176 44.8526 1.0074 44.9374 1.092C44.9953 1.14996 45.0282 1.21176 45.0104 1.22952ZM46.92 3.072C46.989 3.1482 46.9925 3.168 46.937 3.168C46.8618 3.168 46.752 3.07692 46.752 3.0144C46.752 2.94636 46.8307 2.97336 46.92 3.072ZM29.328 8.28024C29.5591 8.3298 29.7739 8.4144 29.928 8.51652C30.06 8.604 30.2845 8.73756 30.427 8.81328C30.6053 8.90796 30.9794 9.24264 31.628 9.8874C32.1461 10.4026 32.7935 11.0292 33.0666 11.28C33.3397 11.5308 33.7604 11.937 34.0015 12.1828C34.2427 12.4285 34.6841 12.8713 34.9824 13.1668C36.737 14.9045 37.1768 15.3554 37.2853 15.528C37.3517 15.6336 37.468 15.7913 37.5436 15.8783C37.6193 15.9654 37.7449 16.1706 37.8228 16.3343C37.9007 16.4981 38.0096 16.6873 38.0648 16.755C38.12 16.8226 38.2276 17.0818 38.3039 17.331C38.3801 17.5801 38.4889 17.9135 38.5458 18.0716C38.7626 18.6757 38.7246 19.754 38.4659 20.3354C38.3972 20.4898 38.3114 20.7132 38.2752 20.832C38.239 20.9508 38.1713 21.1039 38.1247 21.1723C38.0782 21.2406 37.9382 21.4458 37.8138 21.6283C37.5954 21.9487 37.4053 22.1557 36.6718 22.872C36.4825 23.0568 36.298 23.2648 36.2616 23.3342C36.2252 23.4036 36.1205 23.5048 36.0287 23.5589C35.937 23.613 35.8288 23.7215 35.7882 23.8C35.7475 23.8784 35.6382 23.9898 35.5452 24.0473C35.4521 24.1048 35.376 24.1718 35.376 24.1962C35.376 24.2207 35.2465 24.3755 35.0881 24.5404C34.9298 24.7051 34.6976 24.9526 34.5721 25.09C34.4467 25.2275 34.2926 25.3895 34.2299 25.45C33.6727 25.9867 32.832 26.8463 32.832 26.8792C32.832 26.9017 32.7559 26.9672 32.6628 27.0247C32.5698 27.0822 32.4612 27.1921 32.4215 27.2688C32.3818 27.3456 32.2642 27.4648 32.1602 27.5335C32.0562 27.6024 31.9594 27.6955 31.9452 27.7404C31.9056 27.865 31.3388 28.444 31.176 28.5262C31.0968 28.5661 30.982 28.6567 30.9208 28.7275C30.8596 28.7982 30.6868 28.91 30.5368 28.9758C30.3868 29.0417 30.164 29.1592 30.042 29.2369C29.1305 29.8174 26.6176 29.5141 25.8949 28.7365C25.8415 28.679 25.7173 28.5715 25.6189 28.4975C25.5204 28.4236 25.4071 28.2997 25.3672 28.2223C25.3271 28.1449 25.229 28.0478 25.1491 28.0064C25.0692 27.9652 24.9618 27.8623 24.9106 27.7781C24.8592 27.6937 24.736 27.5702 24.6366 27.5036C24.5281 27.4309 24.4126 27.292 24.347 27.1553C24.2131 26.8759 24.009 26.8373 23.8211 27.0559C21.9185 29.2702 20.4548 30.038 19.056 29.556C18.858 29.4878 18.6096 29.409 18.504 29.381C18.296 29.3258 17.5331 28.8455 17.1622 28.536C16.9076 28.3237 16.8043 28.2206 16.416 27.7918C16.0267 27.3619 15.5682 26.9225 15.4063 26.824C15.328 26.7763 15.264 26.7173 15.264 26.6927C15.264 26.668 15.183 26.5998 15.084 26.5411C14.985 26.4826 14.8122 26.3458 14.7 26.2373C14.5877 26.1288 14.3746 25.932 14.2264 25.8C14.0782 25.668 13.792 25.3912 13.5905 25.1848C13.3889 24.9782 12.6698 24.2522 11.9927 23.5714C11.3154 22.8904 10.7238 22.26 10.678 22.1706C10.6321 22.0812 10.535 21.9396 10.4623 21.856C10.3895 21.7723 10.2846 21.5779 10.2294 21.424C10.1742 21.27 10.0974 21.09 10.0589 21.024C10.0202 20.958 9.94668 20.8283 9.89544 20.7358C9.84408 20.6434 9.7206 20.1731 9.621 19.6909L9.43992 18.8142L9.54804 18.2752C9.74424 17.2974 9.8016 17.0878 9.9156 16.931C9.97752 16.8457 10.0853 16.668 10.155 16.536C10.2247 16.404 10.3636 16.2096 10.4635 16.104C11.0167 15.5198 11.1716 15.3551 11.2835 15.232C11.3514 15.1572 11.4522 15.0528 11.5074 15C11.7833 14.7364 12.0832 14.4098 12.1596 14.2897C12.2068 14.2158 12.311 14.1154 12.3914 14.0665C12.4718 14.0176 12.5784 13.9104 12.6283 13.8283C12.6782 13.7462 12.7862 13.6382 12.8683 13.5883C12.9504 13.5384 13.0589 13.4298 13.1093 13.3469C13.1597 13.2641 13.2721 13.1542 13.3592 13.1028C13.4462 13.0514 13.5541 12.9328 13.5988 12.839C13.6434 12.7454 13.7556 12.6241 13.848 12.5696C13.9404 12.5152 14.016 12.4489 14.016 12.4224C14.016 12.3804 14.9333 11.4226 15.225 11.16C15.2837 11.1072 15.3758 11.013 15.4298 10.9506C15.4838 10.8883 15.7211 10.6415 15.9571 10.4021C16.1932 10.1628 16.4869 9.84612 16.6099 9.6984C16.7328 9.55056 16.9594 9.3438 17.1133 9.23892C17.2672 9.13392 17.4452 9.00048 17.509 8.9424C17.5727 8.88432 17.7362 8.80032 17.8724 8.75568C18.0086 8.71104 18.2723 8.60184 18.4584 8.51292C19.1124 8.2008 20.4319 8.19168 21.0154 8.4954C21.1673 8.57448 21.4007 8.67156 21.534 8.71116C21.6674 8.75076 21.8428 8.83188 21.9239 8.89152C22.3944 9.23772 22.56 9.37392 22.56 9.4146C22.56 9.4764 23.3592 10.272 23.4214 10.272C23.4486 10.272 23.5231 10.3548 23.587 10.4561C23.6807 10.6045 23.7553 10.6565 23.973 10.725L24.2429 10.8098L24.8647 10.1689C25.2067 9.81636 25.611 9.39408 25.7633 9.23052C25.9154 9.06684 26.1372 8.8794 26.256 8.81376C26.3748 8.74824 26.5874 8.61924 26.7284 8.52708C26.959 8.3766 27.1858 8.3046 27.792 8.18964C28.0177 8.1468 28.9676 8.20284 29.328 8.28024ZM23.9626 11.3918C23.8495 11.451 23.7148 11.5691 23.6629 11.6542C23.6112 11.7392 23.5018 11.8498 23.4197 11.8997C23.3376 11.9496 23.2301 12.0566 23.1808 12.1376C23.1316 12.2188 23.0173 12.3334 22.9271 12.3926C22.8368 12.4518 22.7244 12.5718 22.6772 12.6594C22.6301 12.747 22.3348 13.061 22.0211 13.3573C21.1458 14.1839 19.8794 15.4508 19.6452 15.7344C19.5296 15.8743 19.3448 16.0687 19.2346 16.1664C18.8248 16.5295 18.4942 16.8433 17.7409 17.5843C17.3158 18.0024 16.9424 18.3696 16.9112 18.4003C16.4756 18.8275 16.4033 19.2347 16.7155 19.5019C16.9567 19.7082 17.1024 19.8455 17.2148 19.9722C17.2714 20.0359 17.3794 20.1436 17.4548 20.2115C17.5303 20.2794 17.6352 20.3834 17.688 20.4427C17.7408 20.502 18.1944 20.9597 18.696 21.4598C19.1976 21.96 19.6404 22.402 19.68 22.4422C19.7468 22.5098 22.3291 25.0961 22.6168 25.3834C23.3267 26.0924 23.8106 26.5448 23.8637 26.549C24.1837 26.5744 24.0997 26.6515 27.7447 22.9873C29.6856 21.0362 31.2986 19.44 31.3292 19.44C31.3858 19.44 31.68 18.9658 31.68 18.8746C31.68 18.7866 31.4489 18.5491 28.968 16.0874C28.6248 15.7469 27.9708 15.0929 27.5148 14.6341C27.0587 14.1754 26.5554 13.6812 26.3963 13.536C26.0564 13.2259 25.9962 13.1657 25.6758 12.816C25.2314 12.3311 24.6836 11.7713 24.6124 11.7294C24.5737 11.7066 24.4846 11.5962 24.4144 11.484C24.2683 11.2505 24.2426 11.2453 23.9626 11.3918ZM16.9684 34.9924C17.1757 35.1932 17.232 35.412 17.232 36.0158C17.232 36.6337 17.2214 36.624 17.8985 36.624C18.5371 36.624 18.8174 36.6887 19.0613 36.8923C19.1694 36.9827 19.3151 37.0702 19.3849 37.0866C19.5326 37.1215 19.728 37.2852 19.728 37.3741C19.728 37.408 19.8223 37.5286 19.9378 37.6423C20.4365 38.134 20.4344 41.0495 19.935 41.5626C19.8422 41.658 19.7249 41.8166 19.6745 41.9153C19.5731 42.1135 19.4629 42.1974 19.176 42.2948C19.0704 42.3307 18.9116 42.408 18.8232 42.4667C18.4162 42.7369 16.9216 42.7192 16.2979 42.4369C16.1912 42.3886 16.0068 42.3192 15.888 42.2826C15.4847 42.1583 15.504 42.3437 15.5051 38.616C15.5062 35.0419 15.4994 35.131 15.7892 34.873C16.0362 34.653 16.6861 34.7189 16.9684 34.9924ZM22.3394 34.8167C22.6135 34.9962 22.7456 35.8548 22.5461 36.1594C22.3405 36.4732 21.153 36.4814 20.9492 36.1706C20.7558 35.8753 20.8781 34.9592 21.136 34.7725C21.288 34.6625 22.1526 34.6942 22.3394 34.8167ZM24.3515 34.7694C24.7667 34.9428 25.008 35.4077 25.008 36.0338C25.008 36.6131 25.0153 36.62 25.632 36.6236C26.198 36.627 26.4718 36.6872 26.688 36.856C26.7804 36.9281 26.9532 37.0283 27.072 37.0786C27.3503 37.1964 27.4284 37.2644 27.5776 37.5191C27.645 37.6339 27.7202 37.728 27.7451 37.728C28.1623 37.728 28.2025 40.9446 27.79 41.3299C27.7148 41.4 27.6392 41.514 27.6218 41.5832C27.5651 41.8099 27.1258 42.2136 26.856 42.2873C26.724 42.3234 26.5489 42.4032 26.4671 42.4648C26.1028 42.7384 24.3666 42.7163 24.0262 42.4338C23.9978 42.4103 23.8742 42.3658 23.7514 42.3348C23.4606 42.2616 23.3372 42.1232 23.2547 41.7778C23.1764 41.4499 23.15 35.4506 23.2267 35.4032C23.2501 35.3887 23.2842 35.3173 23.3024 35.2445C23.4142 34.7969 23.8956 34.5788 24.3515 34.7694ZM29.7598 34.7881C29.8642 34.8403 30.0047 34.9879 30.1318 35.1787L30.336 35.4854V38.6922V41.899L30.0954 42.1882C29.6118 42.7692 29.1404 42.7512 28.6517 42.1328L28.464 41.8954V38.6984V35.5016L28.654 35.1817C28.9292 34.7185 29.3333 34.5748 29.7598 34.7881ZM4.73988 35.2249C4.86264 35.2913 5.0118 35.5602 5.06316 35.808C5.08224 35.9004 5.1606 36.042 5.23728 36.1226C5.36724 36.2593 5.568 36.7225 5.568 36.8856C5.568 36.9252 5.63856 37.0219 5.72496 37.1005C5.82912 37.1952 5.92068 37.3552 5.99724 37.5761L6.11268 37.9088L6.21504 37.7585C6.27144 37.6757 6.37788 37.5432 6.45156 37.464C6.61512 37.2883 6.69324 37.1423 6.76392 36.8795C6.79356 36.7691 6.89076 36.5917 6.97968 36.4852C7.07808 36.3673 7.16508 36.1919 7.20132 36.0377C7.38096 35.274 7.62684 35.0855 8.45148 35.0797C9.54156 35.0719 9.456 34.7606 9.456 38.7354V42.0338L9.348 42.1925C9.02376 42.6689 8.16504 42.7336 7.872 42.3035L7.752 42.1274L7.7232 40.5637C7.70628 39.6506 7.6734 38.9501 7.644 38.88C7.5888 38.7486 7.59576 38.7382 7.46712 39.1462C7.29012 39.7078 7.08372 39.8162 6.192 39.8155C5.46816 39.8149 5.37696 39.7871 5.24292 39.5256C5.19504 39.4322 5.08332 39.3214 4.99044 39.275C4.86156 39.2107 4.80696 39.1405 4.74828 38.9638C4.62276 38.5855 4.608 38.734 4.608 40.3776C4.608 42.1273 4.6038 42.1553 4.30152 42.4207C3.88476 42.7867 3.0336 42.5246 2.88216 41.9839C2.77068 41.5856 2.83488 35.5054 2.95188 35.3761C3.24516 35.0522 4.26108 34.9663 4.73988 35.2249ZM13.2014 36.6768C13.3482 36.7082 13.5116 36.7859 13.6063 36.8689C13.6936 36.9456 13.8485 37.0427 13.9505 37.0848C14.1659 37.1735 14.352 37.332 14.352 37.4266C14.352 37.4628 14.4149 37.5286 14.4918 37.5727C14.6814 37.6816 14.7647 37.8383 14.8292 38.208C14.8592 38.3796 14.9296 38.7529 14.9856 39.0376C15.0739 39.4864 15.0799 39.5917 15.0305 39.8296C14.9992 39.9805 14.9406 40.3092 14.9003 40.56C14.7892 41.2512 14.7499 41.3587 14.5056 41.6405C14.3815 41.7835 14.2368 41.9561 14.184 42.0239C14.1312 42.0917 13.9476 42.2034 13.776 42.272C13.6044 42.3407 13.4152 42.435 13.3554 42.4818C12.9995 42.7602 12.0473 42.7253 11.52 42.4145C11.454 42.3756 11.2751 42.296 11.1224 42.2377C10.8887 42.1483 10.8184 42.0917 10.6768 41.8783C10.5842 41.739 10.4759 41.6124 10.4359 41.597C9.92784 41.4022 9.95784 37.8697 10.4698 37.605C10.545 37.5661 10.6196 37.4822 10.6356 37.4186C10.6733 37.2684 10.7807 37.178 11.0081 37.105C11.1094 37.0724 11.2678 36.9796 11.36 36.8986C11.6494 36.6445 12.5468 36.5364 13.2014 36.6768ZM34.1131 36.7345C34.1972 36.779 34.2944 36.8555 34.3291 36.9044C34.3637 36.9534 34.4911 37.0373 34.6123 37.0907C34.7881 37.1682 34.8484 37.2271 34.9103 37.3818C34.953 37.4884 35.0284 37.6045 35.0778 37.6398C35.3546 37.8374 35.352 37.8146 35.352 39.9888C35.352 42.3108 35.4065 42.0841 34.7752 42.387C34.0176 42.7505 32.3534 42.7802 31.9135 42.4382C31.8511 42.3896 31.7136 42.3226 31.608 42.2891C31.3937 42.221 31.2 42.0666 31.2 41.9635C31.2 41.9263 31.1249 41.8294 31.0332 41.7481C30.624 41.3858 30.632 40.0985 31.0463 39.6403C31.6033 39.0244 31.562 39.0409 32.7256 38.9634C33.6482 38.9018 33.5984 38.9257 33.6167 38.536C33.6304 38.2435 33.1933 38.1704 32.0546 38.2751C31.3285 38.3418 31.1764 38.2298 31.1761 37.629C31.176 37.2611 31.2829 37.0876 31.5452 37.03C31.6229 37.0129 31.6985 36.9678 31.7131 36.9296C31.8211 36.6482 33.6658 36.4982 34.1131 36.7345ZM39.4642 36.7309C39.561 36.7733 39.6642 36.8526 39.6935 36.9073C39.7228 36.962 39.8056 37.021 39.8774 37.0381C40.1245 37.0974 40.2797 37.2067 40.3477 37.3694C40.3852 37.4592 40.4572 37.5547 40.5078 37.5817C40.7962 37.736 40.9466 41.86 40.677 42.2214C40.3222 42.6972 39.5504 42.6973 39.195 42.2216C39.1002 42.0948 39.095 42.0126 39.072 40.2806C39.0588 39.2858 39.0322 38.4476 39.0128 38.4179C38.9572 38.3323 38.5469 38.2448 38.232 38.2513C37.7534 38.2612 37.776 38.1648 37.776 40.1941C37.776 42.1874 37.7885 42.1232 37.3456 42.4075C36.82 42.745 36.2404 42.5993 36.0952 42.0932C36.0672 41.9957 36.0481 40.9997 36.0481 39.6484C36.0484 37.1234 36.0494 37.1142 36.362 37.0358C36.4342 37.0177 36.5604 36.9516 36.6426 36.8891C36.9829 36.6298 38.9771 36.518 39.4642 36.7309ZM44.35 36.6761C44.4967 36.7075 44.6448 36.779 44.7244 36.8567C44.7967 36.9275 44.9165 37.0121 44.9905 37.0447C45.3364 37.1976 45.3625 38.0748 45.0266 38.2546C44.9254 38.3088 44.5237 38.3123 44.112 38.2626C43.8264 38.2282 43.3594 38.2795 43.2678 38.3555C42.9322 38.634 43.0219 40.8114 43.3747 40.9501C43.4915 40.9961 44.2573 40.995 44.5841 40.9486C45.0887 40.8768 45.2962 41.1044 45.2396 41.6676C45.2006 42.0554 45.1043 42.2069 44.8433 42.2904C44.7446 42.322 44.6208 42.3857 44.568 42.4319C44.2211 42.7358 43.1839 42.7514 42.7534 42.4592C42.6635 42.3983 42.478 42.3112 42.3412 42.2657C42.1794 42.212 42.0647 42.1385 42.0133 42.0556C41.9698 41.9854 41.85 41.8524 41.7472 41.76C41.5888 41.6179 41.5465 41.5366 41.4727 41.232C41.4246 41.034 41.3354 40.764 41.2744 40.632C41.1001 40.255 41.1103 38.9488 41.2912 38.496C41.3597 38.3244 41.4311 38.1084 41.4497 38.016C41.5229 37.653 41.9081 37.1971 42.241 37.0796C42.359 37.038 42.522 36.9396 42.6031 36.8609C42.8299 36.6412 43.7388 36.5449 44.35 36.6761ZM22.2883 36.7826C22.5934 36.9824 22.5827 36.8869 22.5977 39.5303C22.6132 42.2573 22.6327 42.1109 22.2167 42.3812C21.6524 42.7478 21.0774 42.6217 20.924 42.0977C20.8919 41.9876 20.8795 41.0843 20.8892 39.528C20.9077 36.5273 20.8687 36.6599 21.725 36.6863C22.04 36.6961 22.1974 36.7229 22.2883 36.7826ZM17.3068 38.3147C17.2438 38.4047 17.232 38.618 17.232 39.6745V40.9278L17.3503 40.9912C17.4836 41.0624 18.1733 41.0311 18.3313 40.9465C18.5462 40.8314 18.6653 38.844 18.4795 38.4736C18.3472 38.2097 17.4641 38.09 17.3068 38.3147ZM25.1124 38.3191C25.0108 38.4272 25.008 38.4628 25.008 39.6812V40.9324L25.1522 40.9921C25.5314 41.1492 26.1468 40.9454 26.2397 40.632C26.3012 40.4243 26.3246 39.0439 26.2729 38.667C26.2196 38.2781 25.3858 38.0281 25.1124 38.3191ZM12.1776 38.3003C11.8722 38.3629 11.808 38.5918 11.808 39.6176C11.808 40.8226 11.9664 41.0548 12.7286 40.9668L13.0013 40.9354L13.1006 40.6082C13.2659 40.0643 13.2222 38.5082 13.0375 38.3572C12.9602 38.2939 12.3914 38.2564 12.1776 38.3003ZM32.664 40.314C32.447 40.3601 32.4133 40.915 32.6226 40.9945C32.8991 41.0996 33.5114 41.1124 33.5831 41.0144C33.6488 40.9246 33.6724 40.4873 33.6188 40.348C33.5881 40.2678 32.9824 40.2463 32.664 40.314ZM46.944 44.904C46.8131 45.0433 46.7382 45.0589 46.7608 44.9422C46.7737 44.8745 46.8486 44.8328 47.0364 44.7888C47.0476 44.7862 47.006 44.838 46.944 44.904Z" fill="#2C3C64"/>
<path fill-rule="evenodd" clip-rule="evenodd" d="M19.512 8.62355C19.4592 8.63471 19.2756 8.68547 19.104 8.73623C18.9324 8.78687 18.6131 8.87507 18.3944 8.93195C18.093 9.01031 17.9421 9.08051 17.7712 9.22175C17.6472 9.32411 17.5193 9.40799 17.487 9.40799C17.4147 9.40799 16.704 10.1011 16.704 10.1717C16.704 10.1998 16.6182 10.2769 16.5134 10.3432C16.4086 10.4093 16.2893 10.5282 16.2484 10.6073C16.2075 10.6864 16.0935 10.7924 15.9951 10.8431C15.8966 10.8937 15.7776 11.0072 15.7308 11.0956C15.6839 11.1838 15.5812 11.293 15.5024 11.3381C15.4236 11.3832 15.3148 11.4952 15.2606 11.5871C15.2064 11.6789 15.0892 11.7971 15 11.8496C14.9109 11.9022 14.8038 12.0112 14.7622 12.0918C14.7206 12.1724 14.6219 12.2718 14.543 12.3126C14.4641 12.3534 14.3458 12.472 14.28 12.576C14.2143 12.68 14.094 12.7997 14.0127 12.8417C13.929 12.885 13.8431 12.9806 13.8147 13.0621C13.7859 13.1448 13.6845 13.2566 13.5765 13.3248C13.4729 13.3901 13.3679 13.4972 13.343 13.563C13.318 13.6286 13.2198 13.7281 13.1249 13.7842C13.0301 13.8402 12.9003 13.9686 12.8364 14.0696C12.7727 14.1707 12.6558 14.2867 12.5768 14.3276C12.4977 14.3686 12.3915 14.4833 12.3408 14.5825C12.2902 14.6819 12.192 14.7935 12.1227 14.8306C12.0533 14.8678 11.955 14.9918 11.9043 15.1066C11.8414 15.2488 11.7651 15.3347 11.6642 15.3772C11.5793 15.4128 11.481 15.5095 11.434 15.6037C11.3859 15.7002 11.2798 15.8033 11.1768 15.8537C11.0622 15.9097 10.9904 15.9842 10.9691 16.069C10.9511 16.1404 10.832 16.3092 10.7043 16.4443C10.5402 16.6176 10.4495 16.766 10.3958 16.9489C10.3468 17.1154 10.2688 17.2508 10.1775 17.328C9.83403 17.618 9.83127 19.915 10.1736 20.4098C10.253 20.5246 10.3594 20.7841 10.4136 20.9951C10.4769 21.2412 10.5448 21.3979 10.6073 21.4417C10.6604 21.4788 10.7616 21.6323 10.8323 21.7826C10.979 22.094 11.018 22.1369 12.6496 23.7766C13.3106 24.4406 13.8888 25.0434 13.9347 25.116C13.9806 25.1886 14.0471 25.248 14.0824 25.248C14.1178 25.248 14.2252 25.3013 14.3212 25.3664L14.4958 25.485L14.5728 25.3675C14.6565 25.2397 14.6585 25.2487 14.3822 24.528C14.2913 24.2911 14.2811 24.1679 14.283 23.328L14.2853 22.392L14.4562 21.936C14.5502 21.6852 14.6535 21.3676 14.6859 21.23C14.7182 21.0925 14.8188 20.8568 14.9096 20.7062C15.0003 20.5555 15.1138 20.3441 15.1619 20.2362C15.2447 20.0504 15.7005 19.3832 15.8862 19.176C15.9335 19.1232 15.998 18.9997 16.0293 18.9016C16.0806 18.7414 16.318 18.48 16.4122 18.48C16.4324 18.48 16.49 18.4038 16.5401 18.3107C16.5903 18.2176 16.7108 18.0888 16.8078 18.0245C16.905 17.9603 17.0232 17.8421 17.0706 17.7618C17.1179 17.6816 17.1735 17.616 17.1939 17.616C17.2259 17.616 18.1806 16.703 18.456 16.4092C18.5088 16.3528 18.5952 16.2661 18.648 16.2164C19.2026 15.6953 19.488 15.407 19.488 15.3684C19.488 15.3428 19.569 15.2543 19.668 15.1716C19.8886 14.9873 19.8834 14.9924 20.0656 14.7743C20.1472 14.6766 20.2542 14.5838 20.3036 14.5681C20.3528 14.5525 20.437 14.4653 20.4906 14.3743C20.5444 14.2834 20.6561 14.1677 20.7389 14.1173C20.8218 14.0669 20.93 13.9594 20.9792 13.8785C21.0284 13.7976 21.1504 13.6798 21.2505 13.6165C21.3507 13.5534 21.4614 13.4476 21.4967 13.3816C21.5321 13.3156 21.6339 13.2268 21.7229 13.1843C21.8121 13.1418 21.9388 13.0217 22.0047 12.9173C22.0706 12.813 22.1684 12.7136 22.2221 12.6966C22.2758 12.6796 22.375 12.5713 22.4426 12.456C22.5102 12.3407 22.6385 12.2032 22.7278 12.1505C22.8171 12.0978 22.923 11.991 22.9634 11.9131C23.0036 11.8352 23.11 11.7282 23.1998 11.6753C23.2894 11.6224 23.4036 11.4958 23.4534 11.3941C23.5032 11.2925 23.6106 11.1649 23.6921 11.1108L23.8401 11.0123L23.658 10.9345C23.5541 10.8901 23.4346 10.788 23.3794 10.6964C23.3262 10.6082 23.2017 10.4898 23.1024 10.4334C23.0032 10.3769 22.8892 10.2653 22.849 10.1852C22.8089 10.1051 22.7067 10.0062 22.6218 9.96539C22.5318 9.92219 22.4278 9.81299 22.3718 9.70331C22.3113 9.58487 22.2312 9.50411 22.155 9.48503C22.0886 9.46835 21.9149 9.35759 21.7692 9.23891C21.497 9.01715 21.4757 9.00947 20.16 8.66303C19.9013 8.59487 19.7036 8.58287 19.512 8.62355ZM21.3509 35.0245C20.9105 35.1407 21.0165 36.2338 21.4628 36.1792L21.624 36.1594L21.4515 36.1517C21.2092 36.1409 21.12 36.0236 21.12 35.7155C21.12 35.0129 21.6425 34.8352 22.212 35.3442C22.4438 35.5513 22.334 35.9992 22.0232 36.1152C21.886 36.1664 21.8646 36.1831 21.96 36.1648C22.2897 36.1009 22.3428 36.0455 22.3584 35.7488C22.3869 35.2051 21.925 34.8731 21.3509 35.0245ZM16.0851 35.1518C15.68 35.2597 15.696 35.125 15.6963 38.4233C15.6966 42.0362 15.6872 41.9682 16.2143 42.1105C17.767 42.5293 19.1426 42.3 19.6138 41.544C20.0003 40.9237 20.0198 40.8728 20.0402 40.4249L20.0591 40.008L20.0109 40.44C19.9814 40.705 19.9282 40.9277 19.8734 41.016C19.8242 41.0952 19.6906 41.3189 19.5765 41.5129C19.3373 41.9203 19.1674 42.0311 18.5822 42.1613C17.7262 42.3517 16.0095 42.1568 15.8528 41.8516C15.776 41.702 15.7647 35.5169 15.8409 35.3744C15.9095 35.2462 16.3454 35.1212 16.4812 35.191C16.8053 35.3573 16.848 35.4516 16.848 36.001C16.848 36.5108 16.8484 36.5124 17.0075 36.6966L17.1671 36.881L17.726 36.9154C18.1055 36.9385 18.3663 36.981 18.5385 37.0477C18.6779 37.1017 18.9324 37.1987 19.104 37.2634C19.5582 37.4342 19.9439 38.0856 20.0129 38.7985C20.0471 39.1525 20.0516 39.1652 20.0574 38.9261C20.0655 38.6004 19.9503 38.1296 19.8228 37.968C19.7709 37.902 19.676 37.7495 19.6119 37.629C19.4013 37.2326 18.6353 36.9154 17.7771 36.869C17.0021 36.8273 16.944 36.7682 16.944 36.024C16.944 35.2716 16.6722 34.9956 16.0851 35.1518ZM23.6536 35.172C23.4735 35.3785 23.472 35.4052 23.472 38.5589C23.472 42.246 23.4594 42.1565 23.976 42.1387C24.1035 42.1343 24.0972 42.1286 23.922 42.0892C23.5164 41.9981 23.5457 42.2561 23.5311 38.6399L23.5181 35.4337L23.6433 35.2848C23.755 35.1522 23.7968 35.136 24.028 35.136C24.4439 35.136 24.576 35.355 24.576 36.0445C24.576 36.7975 24.634 36.854 25.4697 36.9164C25.8744 36.9466 26.0844 36.9876 26.3002 37.0784C26.4592 37.1453 26.6168 37.1984 26.6506 37.1966C26.6844 37.1947 26.6279 37.1624 26.5251 37.1248C26.4222 37.0871 26.3142 37.037 26.2851 37.0138C26.1962 36.9425 25.741 36.864 25.4168 36.864C24.749 36.864 24.624 36.7316 24.624 36.0242V35.4893L24.4523 35.2886C24.2532 35.0561 23.8112 34.9915 23.6536 35.172ZM29.0325 35.172C28.7876 35.4641 28.8 35.2745 28.8 38.7068V41.8972L28.9617 42.0686C29.1939 42.3148 29.567 42.3206 29.7987 42.0817L29.952 41.9234V38.6754V35.4274L29.8031 35.2577C29.6259 35.056 29.1722 35.0054 29.0325 35.172ZM29.7816 35.2966L29.904 35.4571V38.6843V41.9114L29.7645 42.0509C29.553 42.2624 29.1935 42.2461 28.9914 42.0161L28.848 41.8526V38.6732V35.4938L28.9955 35.3149C29.2078 35.0574 29.5924 35.0484 29.7816 35.2966ZM3.50055 35.3269C3.17115 35.501 3.19336 35.2656 3.17836 38.74L3.16479 41.8972L3.27435 42.0023C3.55827 42.2742 4.08279 42.2926 4.29699 42.0382L4.41603 41.8967L4.40523 40.1843L4.39443 38.472L4.36924 40.2107C4.34032 42.2026 4.36264 42.1093 3.90496 42.1594C3.68836 42.183 3.6304 42.1688 3.43467 42.0448L3.21147 41.9033L3.22599 38.7716C3.23403 37.0493 3.25924 35.6014 3.28216 35.5542C3.34708 35.42 3.59751 35.3098 3.91203 35.2768L4.20004 35.2466L3.93603 35.2415C3.76131 35.238 3.61407 35.2669 3.50055 35.3269ZM4.36935 35.3804C4.57275 35.4984 4.7236 35.7083 4.85428 36.0548C4.90768 36.1963 5.01508 36.412 5.09296 36.5342C5.17096 36.6565 5.28747 36.8912 5.35203 37.056C5.41659 37.2208 5.52087 37.4231 5.58375 37.5058C5.64675 37.5884 5.74696 37.7532 5.80648 37.872C5.98588 38.2295 6.08404 38.3126 6.235 38.2346C6.4552 38.1208 6.77115 37.6936 6.91875 37.3103C6.99579 37.1102 7.10848 36.8876 7.16896 36.8156C7.22956 36.7438 7.33768 36.5197 7.4092 36.318C7.52692 35.9867 7.62028 35.8092 7.84792 35.485C7.8892 35.4262 7.99251 35.3579 8.07747 35.3333C8.16255 35.3088 8.19219 35.2867 8.14347 35.2843C7.88907 35.272 7.5748 35.6802 7.36588 36.2944C7.30168 36.483 7.19764 36.705 7.13464 36.7877C7.07164 36.8702 6.95008 37.1059 6.86464 37.3112C6.75064 37.585 6.63436 37.7632 6.4294 37.9786C6.10228 38.3225 6.0808 38.3177 5.84572 37.8509C5.7652 37.6909 5.64051 37.4736 5.56863 37.368C5.49675 37.2624 5.41252 37.098 5.38144 37.0026C5.35036 36.9073 5.248 36.7021 5.15404 36.5466C5.05996 36.3912 4.94199 36.156 4.89195 36.024C4.72815 35.5926 4.4548 35.2774 4.24804 35.2813C4.22164 35.2818 4.27623 35.3264 4.36935 35.3804ZM9.10383 35.424C9.13443 35.4636 9.16899 35.5608 9.18063 35.64L9.20164 35.784L9.20883 35.6339C9.21327 35.5412 9.18387 35.4586 9.13203 35.4179C9.05895 35.3605 9.05523 35.3614 9.10383 35.424ZM9.22768 38.8356L9.21604 41.8873L9.10804 41.9849C8.86276 42.2066 8.19508 42.1962 8.02828 41.9681C7.98304 41.9062 7.96804 41.5142 7.96804 40.3894C7.96804 38.82 7.93732 38.4824 7.77328 38.2522C7.60108 38.0102 7.53159 38.0864 7.24503 38.832C7.06311 39.3055 6.75748 39.565 6.33604 39.604L6.02404 39.6329L6.30556 39.6404C6.81484 39.6541 7.09396 39.388 7.39228 38.604C7.55764 38.1697 7.5802 38.1509 7.72096 38.3299C7.88872 38.5433 7.92003 38.871 7.92003 40.4156C7.92003 41.8867 7.92088 41.8996 8.02804 42.0162C8.18272 42.1846 8.50395 42.2495 8.82687 42.1776C9.29943 42.0725 9.26667 42.3299 9.25203 38.832L9.23932 35.784L9.22768 38.8356ZM12.144 36.8944C11.3182 37.0562 10.3584 37.8569 10.3703 38.3742C10.3715 38.4286 10.4133 38.3677 10.4642 38.2374C10.5146 38.1083 10.5972 37.9571 10.648 37.9014C10.6986 37.8456 10.7951 37.7113 10.8623 37.6028C11.1903 37.0738 12.5381 36.7812 13.2384 37.087C13.3889 37.1527 13.6124 37.2509 13.735 37.3051C13.9946 37.4198 14.4147 37.9096 14.5508 38.256C14.5973 38.3748 14.6366 38.4478 14.6378 38.418C14.6418 38.3197 14.4965 37.955 14.4316 37.901C14.3966 37.8719 14.2833 37.7417 14.18 37.6116C13.8111 37.1477 12.7534 36.7751 12.144 36.8944ZM32.64 36.9103C31.8441 37.0594 31.365 37.3478 31.4132 37.6493C31.481 38.0738 31.5508 38.0996 32.208 37.9429C33.2475 37.6952 33.84 37.9507 33.84 38.6468C33.84 38.8924 33.8254 38.9318 33.6923 39.0437C33.6111 39.1121 33.569 39.168 33.5985 39.168C33.7536 39.168 33.888 38.9324 33.888 38.6608C33.888 37.9212 33.2405 37.6182 32.208 37.8745C31.608 38.0236 31.5563 38.0128 31.487 37.7232C31.2695 36.8172 34.1847 36.6692 34.6902 37.5607C34.7499 37.666 34.8639 37.9212 34.9434 38.1281L35.088 38.5042L35.0877 39.9521C35.0871 41.9012 35.0913 41.873 34.7814 42.0187C34.1726 42.305 32.5655 42.3226 31.8402 42.0509C30.8057 41.6634 30.8439 39.9154 31.8994 39.344C31.9768 39.3022 32.0172 39.267 31.9894 39.2659C31.7748 39.2578 31.3528 39.6761 31.1334 40.1144C30.8199 40.7407 31.1554 41.8373 31.7309 42.0676C32.5626 42.4003 34.1159 42.3955 34.8 42.0582C35.1419 41.8896 35.1441 41.8747 35.126 39.8632L35.112 38.3263L34.8864 37.8599C34.6365 37.3432 34.5948 37.3056 33.984 37.048C33.5932 36.8832 33.071 36.8297 32.64 36.9103ZM37.752 36.9071C37.0113 37.0522 36.4488 37.2215 36.348 37.3296L36.24 37.4454V39.6959C36.24 40.9336 36.2562 41.9563 36.276 41.9686C36.2958 41.9808 36.3062 40.9746 36.2991 39.7325C36.2846 37.1842 36.2714 37.2827 36.6341 37.2235C36.7474 37.205 37.11 37.1246 37.44 37.0448C38.3465 36.8257 38.8258 36.8784 39.8496 37.3102C40.039 37.3901 40.2497 37.7254 40.429 38.232C40.512 38.467 40.5132 38.4679 40.4852 38.28C40.4693 38.1744 40.431 38.0423 40.4002 37.9865C40.3694 37.9306 40.2863 37.778 40.2158 37.6475C39.9261 37.111 38.6572 36.7297 37.752 36.9071ZM43.32 36.9116C41.8391 37.2426 41.3225 38.2391 41.5532 40.32C41.585 40.6061 41.5938 40.468 41.5967 39.648C41.6019 38.1947 41.6526 38.016 42.2277 37.4246C42.4042 37.2432 43.2893 36.9506 43.68 36.9446C44.2467 36.936 44.9764 37.2664 44.9758 37.5314C44.9747 38.0102 44.8881 38.0636 44.3559 37.9144C43.1038 37.563 42.4383 38.4521 42.6614 40.1778C42.7299 40.7072 43.0926 41.2391 43.3784 41.229C43.4403 41.2267 43.4308 41.2127 43.344 41.1781C43.166 41.1071 43.0204 40.9534 42.851 40.6572L42.6994 40.3922L42.7 39.6241C42.7012 38.1926 43.186 37.7004 44.3306 37.9686C44.8948 38.1008 44.9356 38.0849 44.9962 37.7086C45.0791 37.1941 44.1125 36.7345 43.32 36.9116ZM21.417 36.9943C21.3125 37.0142 21.1169 37.263 21.1233 37.368C21.1248 37.3944 21.1606 37.3469 21.2026 37.2625C21.3598 36.9468 21.8408 36.9696 22.166 37.3081L22.3238 37.4725L22.31 39.6356C22.3023 40.8254 22.3122 41.7889 22.332 41.7766C22.3518 41.7643 22.368 40.7796 22.368 39.5884V37.4224L22.1282 37.1911C21.8814 36.9533 21.7794 36.9251 21.417 36.9943ZM26.9307 37.3367C27.3034 37.5756 27.667 38.1574 27.7752 38.688L27.8388 39L27.8146 38.7209C27.7745 38.2583 27.347 37.5258 26.9973 37.321C26.7159 37.156 26.6668 37.1676 26.9307 37.3367ZM21.0831 39.6424C21.0701 42.2653 21.0507 42.1565 21.5398 42.2071C21.8202 42.236 22.2572 42.0688 22.3092 41.9124C22.3193 41.8822 22.2173 41.9316 22.0826 42.0223C21.8591 42.1727 21.8154 42.1848 21.5868 42.1597C21.1158 42.1082 21.1476 42.2766 21.1191 39.6827L21.0942 37.416L21.0831 39.6424ZM17.1845 37.884C16.8872 38.0875 16.8538 38.265 16.8507 39.6563L16.848 40.8887L16.9738 41.0381C17.2024 41.3098 17.746 41.4185 18.192 41.2816C18.258 41.2614 18.1035 41.2558 17.8487 41.2692C17.3544 41.2951 17.1122 41.2165 16.9914 40.9909C16.8902 40.8016 16.9322 38.3713 17.0405 38.159C17.2756 37.6982 18.1008 37.7006 18.533 38.1632C19.1126 38.7838 19.0886 40.5683 18.4937 41.0906C18.3236 41.24 18.338 41.283 18.5163 41.158C18.7998 40.9595 18.9681 40.4455 18.9948 39.696L19.0197 39L18.8632 38.628C18.5486 37.8802 17.7239 37.5148 17.1845 37.884ZM25.003 37.8398C24.5993 38.021 24.576 38.1194 24.576 39.6432C24.576 41.0724 24.5733 41.0592 24.9132 41.2326C25.2402 41.3995 26.0565 41.3134 26.3344 41.0827C26.6202 40.8456 26.706 38.786 26.4501 38.3078C26.232 37.9004 25.4393 37.6441 25.003 37.8398ZM38.0825 37.8222C37.7988 37.8536 37.7147 37.9118 37.5279 38.2054L37.392 38.4188V40.1611V41.9034L37.1928 42.0476C36.9629 42.2142 36.6309 42.2441 36.4307 42.1162L36.312 42.0403L36.4253 42.1402C36.6375 42.327 37.0296 42.2689 37.308 42.0091L37.44 41.886V40.1636V38.4413L37.5813 38.236C37.9365 37.7198 38.7999 37.7485 39.168 38.2888L39.288 38.4648L39.3012 40.1484C39.3101 41.2878 39.3321 41.8667 39.369 41.9395C39.5163 42.229 40.2616 42.2779 40.4703 42.0119C40.5293 41.9365 40.5278 41.9345 40.4548 41.9916C40.1697 42.2148 39.4947 42.1511 39.3952 41.8916C39.3801 41.8524 39.3653 41.1425 39.3623 40.3141C39.3567 38.7583 39.3412 38.508 39.2379 38.304C39.0626 37.9577 38.6002 37.7648 38.0825 37.8222ZM12.1862 37.9601C11.8751 38.1076 11.774 38.1844 11.7068 38.324C11.6776 38.3846 11.6997 38.3713 11.7628 38.29C11.8202 38.2163 12.0066 38.0927 12.1774 38.0153L12.488 37.8744L12.7814 37.9937C13.16 38.1475 13.2515 38.2382 13.4396 38.6462L13.5946 38.9825L13.5748 39.6632C13.5394 40.891 13.0989 41.3819 12.2112 41.1829C11.5658 41.0383 11.1926 39.6359 11.5671 38.7623C11.7176 38.4112 11.6813 38.39 11.5146 38.7316C11.179 39.4196 11.4443 40.8481 11.9662 41.1625C12.3652 41.4029 13.2143 41.229 13.3236 40.8847C13.3424 40.8256 13.414 40.6922 13.4829 40.5883C13.6836 40.2852 13.7006 39.0696 13.5099 38.6579C13.1973 37.9831 12.6957 37.7188 12.1862 37.9601ZM25.7849 37.8712C26.4504 38.1536 26.544 38.3678 26.544 39.6086C26.544 40.4104 26.4604 40.873 26.2871 41.0298C25.914 41.3672 24.9528 41.3476 24.6857 40.997C24.5823 40.8611 24.6018 38.4205 24.7082 38.2087C24.8657 37.8947 25.4262 37.7189 25.7849 37.8712ZM4.51359 38.1685C4.46019 38.2562 4.41627 38.36 4.41615 38.3993C4.41615 38.4384 4.45575 38.3964 4.50435 38.3058C4.63755 38.0574 4.68724 38.075 4.8616 38.4324C4.94944 38.6125 5.10123 38.8643 5.19867 38.9917C5.29623 39.119 5.37604 39.2417 5.37604 39.264C5.37604 39.4003 5.63295 39.5996 5.80035 39.5932L5.97604 39.5863L5.78476 39.5572C5.63548 39.5344 5.57224 39.4931 5.49676 39.3694C5.4436 39.282 5.326 39.0984 5.23552 38.9614C5.14504 38.8242 4.99324 38.5625 4.89832 38.3796C4.6936 37.9854 4.64235 37.9573 4.51359 38.1685ZM10.3344 38.736C10.3344 38.8812 10.3434 38.9406 10.3545 38.868C10.3654 38.7954 10.3654 38.6766 10.3545 38.604C10.3434 38.5314 10.3344 38.5908 10.3344 38.736ZM14.6531 38.688C14.6531 38.8068 14.6625 38.8554 14.6739 38.796C14.6854 38.7366 14.6854 38.6394 14.6739 38.58C14.6625 38.5206 14.6531 38.5692 14.6531 38.688ZM40.5338 40.2C40.5336 41.1504 40.5401 41.546 40.5479 41.0791C40.5558 40.6122 40.5558 39.8346 40.548 39.3511C40.5401 38.8676 40.5338 39.2496 40.5338 40.2ZM14.707 39.576C14.707 39.9456 14.7146 40.0904 14.7237 39.8978C14.7328 39.7054 14.7328 39.403 14.7236 39.2258C14.7143 39.0488 14.7069 39.2064 14.707 39.576ZM32.5334 39.2032C32.6462 39.2134 32.819 39.2132 32.9174 39.2029C33.0156 39.1926 32.9232 39.1843 32.712 39.1844C32.5008 39.1847 32.4204 39.1931 32.5334 39.2032ZM33.204 39.2018C33.2634 39.2134 33.3606 39.2134 33.42 39.2018C33.4794 39.1904 33.4308 39.1811 33.312 39.1811C33.1932 39.1811 33.1446 39.1904 33.204 39.2018ZM10.2881 39.648C10.2881 39.846 10.2966 39.927 10.307 39.828C10.3174 39.729 10.3174 39.567 10.307 39.468C10.2966 39.369 10.2881 39.45 10.2881 39.648ZM27.8549 39.672C27.8552 39.8304 27.8642 39.8894 27.8748 39.8032C27.8855 39.7169 27.8853 39.5873 27.8744 39.5152C27.8634 39.443 27.8547 39.5136 27.8549 39.672ZM32.76 39.962C31.9809 40.1746 32.003 41.2189 32.7909 41.4212C33.0851 41.4967 33.5422 41.4919 33.6381 41.4124C33.7169 41.347 33.903 40.991 33.8739 40.9618C33.8624 40.9504 33.8265 41.0048 33.7941 41.083C33.6089 41.53 32.6757 41.5393 32.3753 41.0972C31.9648 40.4932 32.4317 39.936 33.3484 39.936C33.6678 39.936 33.8818 40.217 33.8966 40.656L33.9053 40.92L33.9236 40.685C33.9758 40.0144 33.5463 39.7476 32.76 39.962ZM27.7858 40.3752C27.7694 40.5508 27.7174 40.7668 27.6704 40.8552C27.6233 40.9436 27.5322 41.124 27.4678 41.256C27.0617 42.0883 26.2775 42.3337 24.504 42.1835L24.12 42.151L24.552 42.2198C25.6748 42.399 26.5799 42.2714 27.04 41.8693C27.476 41.4882 27.8675 40.6846 27.8313 40.245C27.8188 40.093 27.8099 40.1184 27.7858 40.3752ZM10.3344 40.416C10.3344 40.5612 10.3434 40.6206 10.3545 40.548C10.3654 40.4754 10.3654 40.3566 10.3545 40.284C10.3434 40.2114 10.3344 40.2708 10.3344 40.416ZM14.6212 40.5948C14.5779 41.0292 14.1849 41.6206 13.7127 41.9616C13.109 42.3976 11.5371 42.2897 11.0211 41.7768C10.8221 41.579 10.4565 41.0099 10.4141 40.8322C10.3815 40.6954 10.3774 40.6924 10.373 40.8029C10.3676 40.9384 10.6161 41.3788 10.8792 41.6999C11.4087 42.346 12.9942 42.4991 13.7789 41.9798C14.2871 41.6435 14.8916 40.5074 14.6766 40.2926C14.6639 40.2799 14.639 40.4159 14.6212 40.5948ZM41.6667 41.0296C41.6522 41.3642 42.2728 41.9954 42.77 42.1516C43.4894 42.3774 44.7291 42.2557 44.952 41.9374C45.2163 41.5602 44.9757 41.1426 44.52 41.1875L44.232 41.2159L44.5464 41.224C44.9753 41.2349 45.0785 41.4037 44.9253 41.8433C44.7836 42.25 43.347 42.3593 42.5457 42.0245C42.3256 41.9324 41.8605 41.4292 41.7507 41.1643C41.706 41.0563 41.6682 40.9957 41.6667 41.0296ZM43.6694 41.2672C43.7822 41.2774 43.955 41.2772 44.0534 41.2669C44.1516 41.2566 44.0592 41.2483 43.848 41.2484C43.6368 41.2487 43.5564 41.2571 43.6694 41.2672Z" fill="#65A9D3"/>
<path fill-rule="evenodd" clip-rule="evenodd" d="M44.832 1.06344C44.832 1.15356 44.9638 1.2762 45.0105 1.22952C45.0282 1.21176 44.9953 1.14996 44.9374 1.092C44.8527 1.0074 44.832 1.00176 44.832 1.06344ZM46.752 3.0144C46.752 3.07692 46.8618 3.168 46.9371 3.168C46.9925 3.168 46.989 3.1482 46.92 3.072C46.8307 2.97336 46.752 2.94636 46.752 3.0144ZM19.2077 8.30772C18.9053 8.33688 18.7233 8.38656 18.4637 8.5104C18.2747 8.60076 18.0087 8.71104 17.8725 8.75568C17.7363 8.80032 17.5727 8.88432 17.509 8.9424C17.4453 9.00048 17.2672 9.13392 17.1133 9.23892C16.9594 9.3438 16.7328 9.55056 16.6099 9.6984C16.4869 9.84612 16.1932 10.1628 15.9571 10.4021C15.7211 10.6415 15.4839 10.8883 15.4299 10.9506C15.3759 11.013 15.2837 11.1072 15.225 11.16C14.9333 11.4226 14.016 12.3804 14.016 12.4224C14.016 12.4489 13.9404 12.5152 13.848 12.5696C13.7556 12.6241 13.6434 12.7454 13.5988 12.839C13.5541 12.9328 13.4463 13.0514 13.3593 13.1028C13.2721 13.1542 13.1597 13.2641 13.1093 13.3469C13.0589 13.4298 12.9504 13.5384 12.8683 13.5883C12.7863 13.6382 12.6783 13.7462 12.6283 13.8283C12.5784 13.9104 12.4719 14.0176 12.3915 14.0665C12.3111 14.1154 12.2068 14.2158 12.1596 14.2897C12.0832 14.4098 11.7833 14.7364 11.5074 15C11.4522 15.0528 11.3514 15.1572 11.2835 15.232C11.1717 15.3551 11.0167 15.5198 10.4635 16.104C10.3636 16.2096 10.2247 16.404 10.155 16.536C10.0853 16.668 9.97754 16.8457 9.91562 16.931C9.80162 17.0878 9.74426 17.2974 9.54806 18.2752L9.43994 18.8142L9.62102 19.6909C9.72062 20.1731 9.8441 20.6434 9.89546 20.7358C9.9467 20.8283 10.0203 20.958 10.0589 21.024C10.0974 21.09 10.1742 21.27 10.2294 21.424C10.2846 21.5779 10.3895 21.7723 10.4623 21.856C10.5351 21.9396 10.6321 22.0812 10.678 22.1706C10.7238 22.26 11.3154 22.8904 11.9927 23.5714C12.6699 24.2522 13.3889 24.9782 13.5905 25.1848C13.792 25.3912 14.0782 25.668 14.2264 25.8C14.3746 25.932 14.5877 26.1288 14.7 26.2373C14.8122 26.3458 14.985 26.4826 15.084 26.5411C15.183 26.5998 15.264 26.668 15.264 26.6927C15.264 26.7173 15.328 26.7763 15.4063 26.824C15.5682 26.9225 16.0267 27.3619 16.416 27.7918C16.8043 28.2206 16.9077 28.3237 17.1622 28.536C17.5331 28.8455 18.2961 29.3258 18.504 29.381C18.6096 29.409 18.858 29.4878 19.056 29.556C20.2125 29.9545 21.4887 29.4744 22.7679 28.1596C23.9398 26.955 23.904 26.999 23.904 26.759C23.904 26.6359 23.8817 26.544 23.8517 26.544C23.8086 26.544 23.3033 26.069 22.6168 25.3834C22.3291 25.0961 19.7469 22.5098 19.68 22.4422C19.6404 22.402 19.1976 21.96 18.696 21.4598C18.1944 20.9597 17.7408 20.502 17.688 20.4427C17.6352 20.3834 17.5303 20.2794 17.4549 20.2115C17.3794 20.1436 17.2714 20.0359 17.2149 19.9722C17.1024 19.8455 16.9567 19.7082 16.7155 19.5019C16.4033 19.2347 16.4757 18.8275 16.9113 18.4003C16.9425 18.3696 17.3158 18.0024 17.7409 17.5843C18.4942 16.8433 18.8248 16.5295 19.2346 16.1664C19.3449 16.0687 19.5297 15.8743 19.6452 15.7344C19.8795 15.4508 21.1458 14.1839 22.0211 13.3573C22.3348 13.061 22.6301 12.747 22.6773 12.6594C22.7244 12.5718 22.8369 12.4518 22.9271 12.3926C23.0173 12.3334 23.1316 12.2188 23.1808 12.1376C23.2301 12.0566 23.3382 11.9491 23.4211 11.8987C23.5039 11.8483 23.6157 11.7326 23.6694 11.6417C23.7231 11.5507 23.8032 11.4648 23.8475 11.4509C23.9897 11.4059 23.9329 10.7126 23.7825 10.6554C23.7198 10.6316 23.635 10.547 23.5938 10.4675C23.5527 10.3879 23.4707 10.2972 23.4115 10.2659C23.2811 10.1968 22.56 9.47436 22.56 9.4128C22.56 9.3738 22.3913 9.23556 21.9239 8.89152C21.8428 8.83188 21.6675 8.75076 21.534 8.71116C21.4007 8.67156 21.1673 8.57436 21.0154 8.49528C20.8049 8.38572 20.6329 8.34036 20.2936 8.3046C19.8004 8.25264 19.7777 8.25276 19.2077 8.30772ZM20.16 8.66304C21.4757 9.00948 21.4969 9.01716 21.7692 9.23892C21.9149 9.3576 22.0885 9.46836 22.155 9.48504C22.2312 9.50412 22.3113 9.58488 22.3717 9.70332C22.4278 9.813 22.5318 9.9222 22.6218 9.9654C22.7067 10.0062 22.8089 10.1051 22.849 10.1852C22.8892 10.2653 23.0032 10.3769 23.1024 10.4334C23.2017 10.4898 23.3262 10.6082 23.3794 10.6964C23.4346 10.788 23.5541 10.8901 23.658 10.9345L23.8401 11.0123L23.6921 11.1108C23.6106 11.1649 23.5032 11.2925 23.4534 11.3941C23.4036 11.4958 23.2894 11.6224 23.1997 11.6753C23.11 11.7282 23.0035 11.8352 22.9633 11.9131C22.923 11.991 22.8171 12.0978 22.7278 12.1505C22.6385 12.2032 22.5102 12.3407 22.4425 12.456C22.375 12.5713 22.2757 12.6796 22.2221 12.6966C22.1683 12.7136 22.0705 12.813 22.0047 12.9173C21.9388 13.0217 21.8121 13.1418 21.7229 13.1843C21.6339 13.2268 21.5321 13.3156 21.4967 13.3816C21.4614 13.4476 21.3507 13.5534 21.2505 13.6165C21.1504 13.6798 21.0283 13.7976 20.9791 13.8785C20.9299 13.9594 20.8218 14.0669 20.7389 14.1173C20.6561 14.1677 20.5444 14.2834 20.4906 14.3743C20.437 14.4653 20.3527 14.5525 20.3035 14.5681C20.2542 14.5838 20.1472 14.6766 20.0656 14.7743C19.8834 14.9924 19.8886 14.9873 19.668 15.1716C19.569 15.2543 19.488 15.3428 19.488 15.3684C19.488 15.407 19.2025 15.6953 18.648 16.2164C18.5952 16.2661 18.5088 16.3528 18.456 16.4092C18.1806 16.703 17.2259 17.616 17.1939 17.616C17.1735 17.616 17.1179 17.6816 17.0706 17.7618C17.0232 17.8421 16.905 17.9603 16.8078 18.0245C16.7107 18.0888 16.5903 18.2176 16.5401 18.3107C16.4899 18.4038 16.4323 18.48 16.4122 18.48C16.318 18.48 16.0806 18.7414 16.0293 18.9016C15.9979 18.9997 15.9335 19.1232 15.8862 19.176C15.7005 19.3832 15.2447 20.0504 15.1619 20.2362C15.1138 20.3441 15.0003 20.5555 14.9095 20.7062C14.8188 20.8568 14.7181 21.0925 14.6859 21.23C14.6535 21.3676 14.5501 21.6852 14.4562 21.936L14.2853 22.392L14.283 23.328C14.2811 24.1679 14.2913 24.2911 14.3821 24.528C14.6585 25.2487 14.6565 25.2397 14.5728 25.3675L14.4958 25.485L14.3212 25.3664C14.2252 25.3013 14.1178 25.248 14.0824 25.248C14.0471 25.248 13.9806 25.1886 13.9347 25.116C13.8888 25.0434 13.3105 24.4406 12.6496 23.7766C11.0179 22.1369 10.9789 22.094 10.8323 21.7826C10.7616 21.6323 10.6603 21.4788 10.6073 21.4417C10.5448 21.3979 10.4769 21.2412 10.4136 20.9951C10.3594 20.7841 10.2529 20.5246 10.1736 20.4098C9.83126 19.915 9.83402 17.618 10.1775 17.328C10.2688 17.2508 10.3468 17.1154 10.3957 16.9489C10.4495 16.766 10.5402 16.6176 10.7043 16.4443C10.8319 16.3092 10.9511 16.1404 10.9691 16.069C10.9903 15.9842 11.0622 15.9097 11.1768 15.8537C11.2798 15.8033 11.3859 15.7002 11.434 15.6037C11.481 15.5095 11.5793 15.4128 11.6641 15.3772C11.7651 15.3347 11.8414 15.2488 11.9043 15.1066C11.955 14.9918 12.0533 14.8678 12.1227 14.8306C12.192 14.7935 12.2902 14.6819 12.3408 14.5825C12.3915 14.4833 12.4977 14.3686 12.5767 14.3276C12.6558 14.2867 12.7727 14.1707 12.8364 14.0696C12.9003 13.9686 13.0301 13.8402 13.1249 13.7842C13.2198 13.7281 13.318 13.6286 13.3429 13.563C13.3679 13.4972 13.4729 13.3901 13.5765 13.3248C13.6845 13.2566 13.7859 13.1448 13.8147 13.0621C13.8431 12.9806 13.929 12.885 14.0127 12.8417C14.094 12.7997 14.2143 12.68 14.28 12.576C14.3458 12.472 14.4641 12.3534 14.5429 12.3126C14.6219 12.2718 14.7205 12.1724 14.7622 12.0918C14.8038 12.0112 14.9109 11.9022 15 11.8496C15.0892 11.7971 15.2064 11.6789 15.2605 11.5871C15.3148 11.4952 15.4236 11.3832 15.5023 11.3381C15.5812 11.293 15.6839 11.1838 15.7308 11.0956C15.7776 11.0072 15.8965 10.8937 15.9951 10.8431C16.0935 10.7924 16.2075 10.6864 16.2484 10.6073C16.2893 10.5282 16.4086 10.4093 16.5133 10.3432C16.6182 10.2769 16.704 10.1998 16.704 10.1717C16.704 10.1011 17.4147 9.408 17.487 9.408C17.5193 9.408 17.6472 9.32412 17.7712 9.22176C17.9421 9.08052 18.093 9.01032 18.3943 8.93196C18.6131 8.87508 18.9324 8.78688 19.104 8.73624C19.6596 8.57184 19.7818 8.56344 20.16 8.66304Z" fill="#4678B6"/>
<path fill-rule="evenodd" clip-rule="evenodd" d="M27.792 8.18964C27.1858 8.3046 26.959 8.3766 26.7285 8.52708C26.5875 8.61924 26.3748 8.74824 26.256 8.81376C26.1372 8.8794 25.9155 9.06684 25.7633 9.23052C25.611 9.39408 25.2075 9.81564 24.8665 10.1671L24.2464 10.8062L24.0753 10.759L23.904 10.7117V11.0495C23.904 11.4203 23.878 11.3986 24.2004 11.2962C24.2573 11.2782 24.3192 11.332 24.4115 11.4793C24.4833 11.594 24.5737 11.7066 24.6124 11.7294C24.6837 11.7713 25.2315 12.3311 25.6758 12.816C25.9962 13.1657 26.0565 13.2259 26.3963 13.536C26.5554 13.6812 27.0587 14.1754 27.5148 14.6341C27.9708 15.0929 28.6248 15.7469 28.968 16.0874C31.4489 18.5491 31.68 18.7866 31.68 18.8746C31.68 18.9658 31.3858 19.44 31.3293 19.44C31.2987 19.44 29.6856 21.0365 27.7447 22.9877C24.8429 25.9051 24.1905 26.5382 24.072 26.5517C23.829 26.5793 23.8255 26.928 24.0682 26.928C24.2236 26.928 24.2476 26.9476 24.3471 27.1553C24.4126 27.292 24.5281 27.4309 24.6366 27.5036C24.736 27.5702 24.8592 27.6937 24.9106 27.7781C24.9618 27.8623 25.0692 27.9652 25.1491 28.0064C25.2291 28.0478 25.3271 28.1449 25.3672 28.2223C25.4071 28.2997 25.5204 28.4236 25.6189 28.4975C25.7173 28.5715 25.8415 28.679 25.8949 28.7365C26.6176 29.5141 29.1305 29.8174 30.042 29.2369C30.1641 29.1592 30.3868 29.0417 30.5368 28.9758C30.6868 28.91 30.8596 28.7982 30.9208 28.7275C30.982 28.6567 31.0968 28.5661 31.176 28.5262C31.3389 28.444 31.9056 27.865 31.9452 27.7404C31.9594 27.6955 32.0562 27.6024 32.1603 27.5335C32.2642 27.4648 32.3818 27.3456 32.4215 27.2688C32.4612 27.1921 32.5698 27.0822 32.6628 27.0247C32.7559 26.9672 32.832 26.9017 32.832 26.8792C32.832 26.8463 33.6727 25.9867 34.2299 25.45C34.2927 25.3895 34.4467 25.2275 34.5721 25.09C34.6977 24.9526 34.9299 24.7051 35.0881 24.5404C35.2465 24.3755 35.376 24.2207 35.376 24.1962C35.376 24.1718 35.4521 24.1048 35.5452 24.0473C35.6382 23.9898 35.7475 23.8784 35.7882 23.8C35.8288 23.7215 35.937 23.613 36.0287 23.5589C36.1205 23.5048 36.2253 23.4036 36.2616 23.3342C36.298 23.2648 36.4825 23.0568 36.6718 22.872C37.4053 22.1557 37.5954 21.9487 37.8138 21.6283C37.9383 21.4458 38.0782 21.2406 38.1247 21.1723C38.1713 21.1039 38.239 20.9508 38.2752 20.832C38.3115 20.7132 38.3973 20.4898 38.4659 20.3354C38.7246 19.754 38.7627 18.6757 38.5458 18.0716C38.4889 17.9135 38.3801 17.5801 38.3039 17.331C38.2276 17.0818 38.1201 16.8226 38.0649 16.755C38.0097 16.6873 37.9007 16.4981 37.8228 16.3343C37.7449 16.1706 37.6193 15.9654 37.5436 15.8783C37.468 15.7913 37.3517 15.6336 37.2853 15.528C37.1769 15.3554 36.7371 14.9045 34.9824 13.1668C34.6841 12.8713 34.2427 12.4285 34.0015 12.1828C33.7605 11.937 33.3397 11.5308 33.0666 11.28C32.7935 11.0292 32.1461 10.4026 31.6281 9.8874C30.9795 9.24264 30.6053 8.90796 30.427 8.81328C30.2845 8.73756 30.06 8.604 29.928 8.51652C29.562 8.27388 28.3365 8.08632 27.792 8.18964ZM28.9584 8.62272C29.0429 8.66592 29.1597 8.74836 29.2179 8.80596C29.3257 8.91264 29.7028 9.024 29.9561 9.024C30.0756 9.024 30.1085 9.05316 30.1744 9.2178C30.2409 9.384 30.2814 9.4194 30.4602 9.46728C30.6273 9.51192 30.6742 9.54864 30.697 9.65256C30.7308 9.80652 30.8418 9.91212 31.0121 9.95244C31.1062 9.97476 31.1506 10.0298 31.1956 10.1802C31.2448 10.3445 31.2874 10.3912 31.4435 10.4525C31.5621 10.4992 31.632 10.5575 31.632 10.6099C31.632 10.7452 31.7903 10.9012 31.9631 10.9366C32.0919 10.963 32.1347 11.0024 32.1779 11.1352C32.2282 11.2891 32.3376 11.3783 32.5583 11.4448C32.6057 11.459 32.6667 11.534 32.6937 11.6114C32.7276 11.709 32.7996 11.775 32.9279 11.8264C33.0298 11.867 33.1801 11.966 33.2622 12.0462C33.3442 12.1264 33.4385 12.192 33.4719 12.192C33.5051 12.192 33.715 12.3769 33.9382 12.6029C34.1614 12.829 34.5485 13.2124 34.7985 13.4549C36.24 14.8538 37.0497 15.7061 37.1777 15.9592C37.2511 16.1042 37.3618 16.256 37.4236 16.2966C37.4854 16.337 37.536 16.4075 37.536 16.4531C37.5361 16.5614 37.8064 17.1326 37.9159 17.256C38.002 17.3528 38.0707 17.6844 38.1597 18.4308C38.2691 19.3504 38.0773 20.6639 37.8004 20.8922C37.6963 20.9779 37.6151 21.1004 37.5829 21.2202C37.5546 21.3254 37.4658 21.4698 37.3857 21.5412C37.3055 21.6126 37.1751 21.7685 37.0959 21.8875C37.0167 22.0066 36.8883 22.158 36.8105 22.224C36.4085 22.5654 36.1027 22.9104 36.0384 23.0951C36.0137 23.1656 35.9121 23.2775 35.8125 23.3434C35.7129 23.4094 35.605 23.5247 35.5729 23.5997C35.5409 23.6747 35.4465 23.7792 35.3631 23.832C35.2798 23.8848 35.1635 23.9995 35.1047 24.0869C35.0459 24.1742 34.9263 24.2934 34.8389 24.3517C34.7515 24.41 34.6509 24.5221 34.6153 24.6008C34.5797 24.6796 34.4825 24.7873 34.3993 24.8402C34.3161 24.8932 34.2115 25.0094 34.1669 25.0986C34.1145 25.2037 34.0173 25.2914 33.891 25.348C33.7825 25.3966 33.6714 25.4894 33.6405 25.5574C33.6099 25.6246 33.5122 25.7224 33.4234 25.7747C33.3346 25.8271 33.2179 25.9447 33.1641 26.036C33.1102 26.1274 32.9917 26.2458 32.901 26.2994C32.8103 26.353 32.7001 26.4719 32.6563 26.5637C32.6116 26.6576 32.5173 26.7553 32.4408 26.787C32.3661 26.818 32.257 26.9218 32.1985 27.0176C32.14 27.1135 32.0729 27.1999 32.0494 27.2095C31.9474 27.2515 31.68 27.5198 31.68 27.5803C31.68 27.6168 31.5955 27.7025 31.4925 27.7708C31.3893 27.839 31.2775 27.9608 31.2442 28.0414C31.2053 28.1352 31.1218 28.2134 31.0117 28.2593C30.9173 28.2986 30.7519 28.4118 30.6442 28.5108C30.5326 28.6135 30.3367 28.7273 30.1882 28.7756C30.0451 28.8223 29.7876 28.9387 29.616 29.0342L29.304 29.208H28.416H27.528L27.24 29.052C27.0816 28.9661 26.8249 28.8502 26.6698 28.7941C26.5145 28.7382 26.3055 28.6183 26.2051 28.5277C26.1048 28.4371 25.945 28.3252 25.8499 28.2788C25.7518 28.2311 25.6415 28.1251 25.5946 28.0334C25.5492 27.9448 25.4399 27.8342 25.3518 27.7878C25.2637 27.7415 25.1557 27.6317 25.1118 27.5437C25.0679 27.4559 24.9601 27.3481 24.8722 27.3042C24.6717 27.204 24.6951 27.2366 24.6052 26.932L24.5284 26.6718L27.7419 23.476C31.5407 19.698 31.6571 19.584 31.7202 19.584C31.7962 19.584 32.0118 19.1041 32.0437 18.864C32.0861 18.547 31.9468 18.2071 31.7082 18.0451C31.6059 17.9755 31.4851 17.8471 31.4399 17.7598C31.3947 17.6724 31.2846 17.5663 31.1952 17.5242C31.0996 17.479 31.0009 17.3803 30.9557 17.2843C30.9102 17.1882 30.8118 17.0898 30.7157 17.0443C30.6196 16.999 30.5211 16.9004 30.4757 16.8046C30.4303 16.7083 30.3262 16.6044 30.2214 16.5506C30.1237 16.5006 30.0033 16.3927 29.9536 16.311C29.9038 16.2292 29.7697 16.1053 29.6556 16.0357C29.3425 15.8448 28.6842 15.1763 28.5353 14.8979C28.4465 14.732 28.35 14.6263 28.2391 14.5734C28.1358 14.5242 28.0559 14.441 28.0241 14.3497C27.9913 14.2558 27.9076 14.1709 27.787 14.1095C27.664 14.0466 27.5766 13.957 27.5301 13.8455C27.4823 13.7312 27.4059 13.6541 27.2938 13.6073C27.2026 13.5692 27.0811 13.4723 27.0239 13.3919C26.9667 13.3115 26.8083 13.1725 26.6719 13.0831C26.5356 12.9936 26.2188 12.7019 25.968 12.4348C25.7172 12.1676 25.323 11.7552 25.092 11.5183C24.6106 11.0245 24.6077 11.017 24.8603 10.9159C25.0035 10.8587 25.0662 10.7964 25.1221 10.6566C25.1779 10.5173 25.2305 10.465 25.3386 10.4412C25.5046 10.4047 25.5767 10.3304 25.6264 10.1447C25.6494 10.0584 25.7268 9.9768 25.8454 9.91368C25.9523 9.85668 26.0611 9.7482 26.1064 9.6534C26.1604 9.54024 26.2351 9.4746 26.352 9.4374C26.473 9.39888 26.5446 9.3336 26.608 9.204C26.6749 9.06708 26.7247 9.024 26.8165 9.024C27.025 9.024 27.4513 8.87772 27.5949 8.757C27.8659 8.52888 28.6285 8.45376 28.9584 8.62272ZM16.144 34.7508C15.4927 34.822 15.5063 34.7401 15.5051 38.616C15.504 42.3437 15.4847 42.1583 15.888 42.2826C16.0068 42.3192 16.1913 42.3886 16.2979 42.4369C16.9216 42.7192 18.4162 42.7369 18.8232 42.4667C18.9117 42.408 19.0704 42.3307 19.176 42.2948C19.4629 42.1974 19.5731 42.1135 19.6745 41.9153C19.7249 41.8166 19.8423 41.658 19.935 41.5626C20.4345 41.0495 20.4365 38.134 19.9378 37.6423C19.8223 37.5286 19.728 37.408 19.728 37.3741C19.728 37.2852 19.5327 37.1215 19.3849 37.0866C19.3151 37.0702 19.1694 36.9827 19.0613 36.8923C18.8175 36.6887 18.5371 36.624 17.8985 36.624C17.2215 36.624 17.232 36.6337 17.232 36.0158C17.232 35.0484 16.9047 34.6679 16.144 34.7508ZM21.136 34.7725C20.8781 34.9592 20.7558 35.8753 20.9493 36.1706C21.153 36.4814 22.3405 36.4732 22.5461 36.1594C22.7457 35.8548 22.6135 34.9962 22.3395 34.8167C22.1526 34.6942 21.288 34.6625 21.136 34.7725ZM23.6811 34.7516C23.5509 34.8042 23.3457 35.0712 23.3025 35.2445C23.2842 35.3173 23.2501 35.3887 23.2267 35.4032C23.1501 35.4506 23.1765 41.4499 23.2547 41.7778C23.3373 42.1232 23.4606 42.2616 23.7514 42.3348C23.8743 42.3658 23.9979 42.4103 24.0262 42.4338C24.3666 42.7163 26.1028 42.7384 26.4671 42.4648C26.5489 42.4032 26.724 42.3234 26.856 42.2873C27.1258 42.2136 27.5651 41.8099 27.6219 41.5832C27.6393 41.514 27.7149 41.4 27.79 41.3299C28.2025 40.9446 28.1623 37.728 27.7451 37.728C27.7203 37.728 27.645 37.6339 27.5776 37.5191C27.4284 37.2644 27.3503 37.1964 27.072 37.0786C26.9532 37.0283 26.7804 36.9281 26.688 36.856C26.4718 36.6872 26.1981 36.627 25.632 36.6236C25.0153 36.62 25.008 36.6131 25.008 36.0338C25.008 35.0971 24.3649 34.4756 23.6811 34.7516ZM29.002 34.784C28.8969 34.8359 28.7805 34.9688 28.654 35.1817L28.464 35.5016V38.6984V41.8954L28.6517 42.1328C29.1405 42.7512 29.6118 42.7692 30.0954 42.1882L30.336 41.899V38.6922V35.4854L30.1318 35.1787C29.8296 34.7249 29.4155 34.5803 29.002 34.784ZM22.0703 35.1344C22.4243 35.3909 22.4994 35.9467 22.2 36.0941C21.9384 36.2228 21.3263 36.2221 21.1887 36.0929C20.9724 35.8897 21.0935 35.0924 21.3509 35.0245C21.6144 34.955 21.8783 34.9954 22.0703 35.1344ZM3.74401 35.0896C3.32173 35.1176 3.11977 35.1906 2.95189 35.3761C2.83489 35.5054 2.77069 41.5856 2.88217 41.9839C3.03361 42.5246 3.88477 42.7867 4.30153 42.4207C4.60381 42.1553 4.60801 42.1273 4.60801 40.3776C4.60801 38.734 4.62277 38.5855 4.74829 38.9638C4.80697 39.1405 4.86157 39.2107 4.99045 39.275C5.08333 39.3214 5.19505 39.4322 5.24293 39.5256C5.37697 39.7871 5.46817 39.8149 6.19201 39.8155C7.08373 39.8162 7.29013 39.7078 7.46713 39.1462C7.59577 38.7382 7.58881 38.7486 7.64401 38.88C7.67341 38.9501 7.70629 39.6506 7.72321 40.5637L7.75201 42.1274L7.87201 42.3035C8.16505 42.7336 9.02377 42.6689 9.34801 42.1925L9.45601 42.0338V38.7354C9.45601 34.7606 9.54157 35.0719 8.45149 35.0797C7.62685 35.0855 7.38097 35.274 7.20133 36.0377C7.16509 36.1919 7.07809 36.3673 6.97969 36.4852C6.89077 36.5917 6.79357 36.7691 6.76393 36.8795C6.69325 37.1423 6.61513 37.2883 6.45157 37.464C6.37789 37.5432 6.27145 37.6757 6.21505 37.7585L6.11269 37.9088L5.99725 37.5761C5.92069 37.3552 5.82913 37.1952 5.72497 37.1005C5.63857 37.0219 5.56801 36.9252 5.56801 36.8856C5.56801 36.7225 5.36725 36.2593 5.23729 36.1226C5.16061 36.042 5.08225 35.9004 5.06317 35.808C4.94137 35.2206 4.59697 35.033 3.74401 35.0896ZM16.5613 35.1673C16.932 35.4152 16.944 35.4421 16.944 36.024C16.944 36.7682 17.0021 36.8273 17.7771 36.869C18.6353 36.9154 19.4013 37.2326 19.6119 37.629C19.6759 37.7495 19.771 37.902 19.8231 37.968C20.0985 38.3166 20.1779 40.5726 19.9303 41.016C19.4349 41.9035 19.2969 42.0298 18.6316 42.2048C17.8757 42.4037 16.1289 42.2447 15.8649 41.953C15.72 41.7929 15.6966 41.303 15.6963 38.4233C15.696 35.125 15.6799 35.2597 16.0851 35.1518C16.3751 35.0747 16.4251 35.0762 16.5613 35.1673ZM24.4523 35.2886L24.624 35.4893V36.0242C24.624 36.7316 24.7489 36.864 25.4167 36.864C25.7605 36.864 26.182 36.9422 26.3275 37.0331C26.3806 37.0662 26.5104 37.1202 26.616 37.1531C27.3431 37.3796 27.7711 38.051 27.8441 39.0796C27.9525 40.607 27.5459 41.729 26.76 42.072C25.8165 42.4837 23.6021 42.3024 23.5026 41.8052C23.4451 41.5178 23.4672 35.4749 23.5261 35.3609C23.7153 34.9948 24.1704 34.9594 24.4523 35.2886ZM29.8031 35.2577L29.952 35.4274V38.6754V41.9234L29.7987 42.0817C29.5669 42.3206 29.1939 42.3148 28.9617 42.0686L28.8 41.8972V38.7068C28.8 35.2745 28.7875 35.4641 29.0325 35.172C29.1721 35.0054 29.6259 35.056 29.8031 35.2577ZM4.36945 35.34C4.60693 35.46 4.75021 35.6462 4.88977 36.0164C4.94101 36.1526 5.05993 36.3912 5.15401 36.5466C5.24797 36.7021 5.35033 36.9073 5.38141 37.0026C5.41249 37.098 5.49673 37.2624 5.56861 37.368C5.64049 37.4736 5.76517 37.6909 5.84569 37.8509C6.08077 38.3177 6.10225 38.3225 6.42937 37.9786C6.63433 37.7632 6.75061 37.585 6.86461 37.3112C6.95005 37.1059 7.07161 36.8702 7.13461 36.7877C7.19761 36.705 7.30165 36.483 7.36585 36.2944C7.67473 35.3861 8.05213 35.1263 8.80729 35.3018C9.27985 35.4118 9.23809 35.0934 9.25417 38.7044C9.26821 41.8255 9.26665 41.8877 9.17233 42.0077C8.96713 42.2684 8.26477 42.2736 8.02801 42.0161C7.92085 41.8996 7.92001 41.8867 7.92001 40.4156C7.92001 38.871 7.88869 38.5433 7.72093 38.3299C7.58017 38.1509 7.55761 38.1697 7.39225 38.604C7.05709 39.4848 6.81277 39.6785 6.10249 39.6265C5.59501 39.5894 5.52373 39.5534 5.37325 39.2584C5.32441 39.163 5.22805 39.0176 5.15905 38.9356C5.08993 38.8535 4.95877 38.6329 4.86757 38.4455C4.68721 38.075 4.63825 38.0562 4.50433 38.3058C4.42333 38.4569 4.41601 38.6118 4.41601 40.1836V41.8967L4.29697 42.0382C4.08277 42.2926 3.55825 42.2742 3.27433 42.0023L3.16477 41.8972L3.17833 38.74C3.19333 35.2656 3.17113 35.501 3.50053 35.3269C3.74089 35.1998 4.10281 35.2052 4.36945 35.34ZM11.752 36.6908C11.6287 36.724 11.4523 36.8174 11.3601 36.8986C11.2678 36.9796 11.1094 37.0724 11.0081 37.105C10.7807 37.178 10.6733 37.2684 10.6356 37.4186C10.6197 37.4822 10.545 37.5661 10.4698 37.605C9.95785 37.8697 9.92785 41.4022 10.4359 41.597C10.4759 41.6124 10.5843 41.739 10.6768 41.8783C10.8184 42.0917 10.8887 42.1483 11.1225 42.2377C11.2751 42.296 11.454 42.3756 11.52 42.4145C12.0473 42.7253 12.9995 42.7602 13.3554 42.4818C13.4152 42.435 13.6044 42.3407 13.776 42.272C13.9476 42.2034 14.1312 42.0917 14.184 42.0239C14.2368 41.9561 14.3815 41.7835 14.5056 41.6405C14.7499 41.3587 14.7892 41.2512 14.9003 40.56C14.9406 40.3092 14.9992 39.9805 15.0305 39.8296C15.0799 39.5917 15.0739 39.4864 14.9856 39.0376C14.9296 38.7529 14.8593 38.3796 14.8293 38.208C14.7647 37.8383 14.6814 37.6816 14.4918 37.5727C14.4149 37.5286 14.352 37.4628 14.352 37.4266C14.352 37.332 14.1659 37.1735 13.9505 37.0848C13.8485 37.0427 13.6936 36.9456 13.6063 36.8689C13.3381 36.6335 12.3261 36.5363 11.752 36.6908ZM32.2513 36.6698C31.99 36.7174 31.7501 36.833 31.7131 36.9296C31.6985 36.9678 31.6229 37.0129 31.5453 37.03C31.2829 37.0876 31.176 37.2611 31.1761 37.629C31.1764 38.2298 31.3285 38.3418 32.0547 38.2751C33.1933 38.1704 33.6304 38.2435 33.6167 38.536C33.5985 38.9257 33.6483 38.9018 32.7256 38.9634C31.5621 39.0409 31.6033 39.0244 31.0463 39.6403C30.6321 40.0985 30.624 41.3858 31.0332 41.7481C31.1249 41.8294 31.2 41.9263 31.2 41.9635C31.2 42.0666 31.3937 42.221 31.608 42.2891C31.7136 42.3226 31.8511 42.3896 31.9135 42.4382C32.3535 42.7802 34.0176 42.7505 34.7752 42.387C35.4065 42.0841 35.352 42.3108 35.352 39.9888C35.352 37.8146 35.3547 37.8374 35.0778 37.6398C35.0284 37.6045 34.953 37.4884 34.9103 37.3818C34.8484 37.2271 34.7881 37.1682 34.6123 37.0907C34.4911 37.0373 34.3637 36.9534 34.3291 36.9044C34.1614 36.6672 32.9928 36.5352 32.2513 36.6698ZM37.392 36.6539C37.0591 36.6926 36.7893 36.7774 36.6426 36.8891C36.5604 36.9516 36.4342 37.0177 36.3621 37.0358C36.0495 37.1142 36.0484 37.1234 36.0481 39.6484C36.0481 40.9997 36.0672 41.9957 36.0952 42.0932C36.2404 42.5993 36.82 42.745 37.3456 42.4075C37.7885 42.1232 37.776 42.1874 37.776 40.1941C37.776 38.1648 37.7535 38.2612 38.232 38.2513C38.5469 38.2448 38.9572 38.3323 39.0129 38.4179C39.0322 38.4476 39.0588 39.2858 39.072 40.2806C39.0951 42.0126 39.1002 42.0948 39.195 42.2216C39.5505 42.6973 40.3222 42.6972 40.677 42.2214C40.9467 41.86 40.7962 37.736 40.5078 37.5817C40.4572 37.5547 40.3852 37.4592 40.3477 37.3694C40.2797 37.2067 40.1245 37.0974 39.8775 37.0381C39.8056 37.021 39.7228 36.962 39.6935 36.9073C39.574 36.684 38.32 36.5459 37.392 36.6539ZM42.9634 36.6762C42.8327 36.7019 42.6939 36.773 42.6031 36.8609C42.522 36.9396 42.3591 37.038 42.241 37.0796C41.9081 37.1971 41.5229 37.653 41.4497 38.016C41.4311 38.1084 41.3597 38.3244 41.2912 38.496C41.1103 38.9488 41.1001 40.255 41.2744 40.632C41.3355 40.764 41.4246 41.034 41.4727 41.232C41.5465 41.5366 41.5888 41.6179 41.7472 41.76C41.85 41.8524 41.9698 41.9854 42.0133 42.0556C42.0647 42.1385 42.1794 42.212 42.3412 42.2657C42.478 42.3112 42.6635 42.3983 42.7534 42.4592C43.1839 42.7514 44.2211 42.7358 44.568 42.4319C44.6208 42.3857 44.7447 42.322 44.8433 42.2904C45.1043 42.2069 45.2007 42.0554 45.2397 41.6676C45.2962 41.1044 45.0887 40.8768 44.5841 40.9486C44.2573 40.995 43.4915 40.9961 43.3747 40.9501C43.0219 40.8114 42.9322 38.634 43.2678 38.3555C43.3594 38.2795 43.8264 38.2282 44.112 38.2626C44.5237 38.3123 44.9254 38.3088 45.0267 38.2546C45.3625 38.0748 45.3364 37.1976 44.9905 37.0447C44.9165 37.0121 44.7967 36.9275 44.7244 36.8567C44.5051 36.6426 43.6051 36.5503 42.9634 36.6762ZM21.1825 36.7266C20.9107 36.8652 20.9053 36.9169 20.8893 39.528C20.8732 42.1168 20.8775 42.169 21.1246 42.4217C21.4396 42.7439 22.3955 42.5048 22.564 42.0617C22.6579 41.8145 22.5984 37.1456 22.4993 36.9944C22.3177 36.7174 21.5191 36.555 21.1825 36.7266ZM13.4975 37.143C13.9397 37.35 14.0245 37.4102 14.2111 37.649C14.3275 37.7981 14.4384 37.92 14.4575 37.92C14.734 37.92 14.8264 40.5532 14.5668 41.038C14.1228 41.8672 13.4507 42.2888 12.552 42.3018C11.2189 42.3211 10.4231 41.6041 10.318 40.2888C10.1634 38.3561 10.4501 37.5948 11.5031 37.1419C12.3563 36.775 12.7117 36.7752 13.4975 37.143ZM33.984 37.048C34.5948 37.3056 34.6365 37.3432 34.8864 37.8599L35.112 38.3263L35.1259 39.8632C35.1441 41.8747 35.1419 41.8896 34.8 42.0582C34.1159 42.3955 32.5626 42.4003 31.7309 42.0676C31.1373 41.8301 30.8193 40.7392 31.1517 40.0807C31.5081 39.3746 31.8138 39.2117 32.8571 39.172C33.7595 39.1376 33.84 39.0943 33.84 38.6428C33.84 37.9511 33.2448 37.6958 32.208 37.9429C31.5508 38.0996 31.4809 38.0738 31.4131 37.6493C31.3707 37.3831 31.4561 37.3037 31.9969 37.1065C32.8062 36.8114 33.3828 36.7944 33.984 37.048ZM39.4822 37.1148C39.906 37.2845 40.0264 37.3547 40.1039 37.4774C40.1567 37.5612 40.2496 37.7088 40.3101 37.8053C40.5619 38.207 40.7079 41.6716 40.4862 41.988C40.2847 42.2756 39.5231 42.2425 39.369 41.9395C39.3321 41.8667 39.3101 41.2878 39.3012 40.1484L39.288 38.4648L39.168 38.2888C38.7999 37.7485 37.9365 37.7198 37.5813 38.236L37.44 38.4413V40.1636V41.886L37.308 42.0091C36.9971 42.2992 36.606 42.3336 36.3792 42.091L36.24 41.9418V39.6936V37.4454L36.348 37.3296C36.4488 37.2215 37.0113 37.0522 37.752 36.9071C38.2473 36.81 38.9241 36.8912 39.4822 37.1148ZM44.4653 37.063C44.9889 37.2976 45.0504 37.3724 44.9962 37.7086C44.9356 38.0849 44.8948 38.1008 44.3305 37.9686C43.186 37.7004 42.7012 38.1926 42.7 39.6241L42.6994 40.3922L42.8509 40.6572C43.1766 41.2264 43.401 41.2997 44.4851 41.1911C44.9248 41.147 45.024 41.2217 45.024 41.5964C45.024 42.4775 42.9097 42.5552 42.0855 41.7044C41.3461 40.9414 41.2804 38.4496 41.9777 37.6256C42.5441 36.9564 43.6631 36.7033 44.4653 37.063ZM22.1281 37.1911L22.368 37.4224L22.3632 39.5791C22.3606 40.7654 22.344 41.7876 22.3263 41.8508C22.2226 42.2209 21.3685 42.3484 21.1678 42.0236C21.0094 41.7672 21.0202 37.5628 21.18 37.2472C21.3705 36.8711 21.7716 36.8474 22.1281 37.1911ZM17.2683 37.8994C16.9728 38.0597 16.944 38.2127 16.944 39.6252C16.944 40.9972 16.9483 41.0236 17.2011 41.1797C17.4966 41.3623 18.2867 41.2951 18.5248 41.0671C19.0911 40.5246 19.096 38.7661 18.5329 38.1632C18.2406 37.8502 17.6038 37.7173 17.2683 37.8994ZM24.984 37.9336C24.6395 38.1272 24.624 38.2014 24.6256 39.648C24.6273 41.0522 24.6183 41.0096 24.9462 41.177C25.3006 41.3578 26.0109 41.2798 26.2871 41.0298C26.4604 40.873 26.544 40.4104 26.544 39.6086C26.544 38.5051 26.4721 38.2582 26.0847 38.0296C25.6641 37.7815 25.3095 37.7506 24.984 37.9336ZM12.1575 38.0196C11.1491 38.4904 11.191 40.9543 12.2112 41.1829C13.0989 41.3819 13.5394 40.891 13.5748 39.6632L13.5946 38.9825L13.4395 38.6462C13.2541 38.2441 12.6983 37.803 12.469 37.8761C12.4619 37.8784 12.3216 37.943 12.1575 38.0196ZM18.216 38.2732C18.5229 38.3656 18.5509 38.4683 18.5515 39.504C18.552 40.4656 18.4918 40.8606 18.3313 40.9465C18.1733 41.0311 17.4837 41.0624 17.3503 40.9912L17.232 40.9278V39.6745C17.232 38.1638 17.2185 38.2061 17.7028 38.2117C17.8794 38.2138 18.1104 38.2414 18.216 38.2732ZM25.9791 38.3243C26.2987 38.4656 26.3059 38.4959 26.3003 39.6667C26.2957 40.6195 26.2541 40.7891 25.9931 40.9169C25.7541 41.0339 25.3421 41.0707 25.1523 40.9921L25.008 40.9324V39.6812C25.008 38.4628 25.0108 38.4272 25.1124 38.3191C25.2574 38.1648 25.6233 38.167 25.9791 38.3243ZM13.0375 38.3572C13.2222 38.5082 13.2659 40.0643 13.1007 40.6082L13.0013 40.9354L12.7287 40.9668C12.4612 40.9976 12.0706 40.9423 12.0013 40.8638C11.7747 40.6066 11.7361 38.6059 11.9535 38.3808C12.0665 38.2637 12.901 38.2456 13.0375 38.3572ZM32.7978 40.0152C32.0482 40.1928 32.0295 41.137 32.7713 41.3536C33.4704 41.5577 33.8883 41.2928 33.8879 40.6459C33.8874 40.0213 33.5632 39.8338 32.7978 40.0152ZM33.6189 40.348C33.6724 40.4873 33.6489 40.9246 33.5831 41.0144C33.5115 41.1124 32.8991 41.0996 32.6226 40.9945C32.4133 40.915 32.4471 40.3601 32.664 40.314C32.9824 40.2463 33.5881 40.2678 33.6189 40.348ZM46.8963 44.8268C46.8304 44.8452 46.7694 44.897 46.7608 44.9422C46.7382 45.0589 46.8131 45.0433 46.944 44.904C47.0061 44.838 47.0476 44.7862 47.0364 44.7888C47.0251 44.7914 46.9621 44.8086 46.8963 44.8268Z" fill="#7C8491"/>
</svg>
