<?xml version="1.0" standalone="no"?>
<!DOCTYPE svg PUBLIC "-//W3C//DTD SVG 20010904//EN"
 "http://www.w3.org/TR/2001/REC-SVG-20010904/DTD/svg10.dtd">
<svg version="1.0" xmlns="http://www.w3.org/2000/svg"
 width="200.000000pt" height="200.000000pt" viewBox="0 0 200.000000 200.000000"
 preserveAspectRatio="xMidYMid meet">

<g transform="translate(0.000000,200.000000) scale(0.100000,-0.100000)"
fill="#000000" stroke="none">
<path d="M43 1158 c24 -40 83 -142 132 -225 50 -84 93 -153 96 -153 8 0 159
258 159 272 0 6 -23 48 -51 94 l-50 84 -165 0 -164 0 43 -72z"/>
<path d="M940 1000 l0 -230 121 0 120 0 -3 48 -3 47 -55 2 c-30 1 -61 2 -67 2
-10 1 -13 44 -13 181 l0 180 -50 0 -50 0 0 -230z"/>
<path d="M1230 1083 c0 -171 10 -216 55 -258 101 -96 289 -55 324 70 6 22 11
106 11 188 l0 147 -50 0 -50 0 0 -149 c0 -82 -4 -161 -10 -176 -20 -53 -117
-67 -157 -23 -15 17 -18 43 -21 184 l-3 164 -50 0 -49 0 0 -147z"/>
<path d="M1710 1000 l0 -230 145 0 145 0 0 45 0 44 -97 3 -98 3 -3 43 -3 42
100 0 101 0 0 50 0 50 -101 0 -100 0 3 43 3 42 98 3 97 3 0 44 0 45 -145 0
-145 0 0 -230z"/>
<path d="M545 1004 c-60 -118 -111 -219 -113 -225 -2 -5 18 -9 45 -9 l50 0 23
50 23 50 87 0 86 0 25 -50 c24 -49 25 -50 72 -50 26 0 47 3 47 6 0 11 -225
444 -230 444 -3 0 -54 -97 -115 -216z m139 -11 c10 -21 16 -40 15 -42 -7 -7
-79 -7 -79 1 0 13 33 78 40 78 3 0 14 -17 24 -37z"/>
</g>
</svg>
