<svg width="24" height="31" viewBox="0 0 24 31" fill="none" xmlns="http://www.w3.org/2000/svg">
<path d="M10.721 0.0644203C9.93681 0.150186 9.04852 0.346222 8.23375 0.615772C3.73717 2.11055 0.533199 6.11091 0.0553609 10.8342C-0.177432 13.1315 0.312659 15.2143 1.74005 18.0752C3.43699 21.4507 6.71447 25.7942 10.4208 29.5556L11.6828 30.8421H12.0013H12.3199L13.5819 29.5556C18.2622 24.8017 21.9685 19.5088 23.304 15.6677C24.2046 13.0886 24.2291 10.7729 23.3898 8.23668C21.6255 2.89469 16.3325 -0.517562 10.721 0.0644203ZM13.7289 3.61145C15.4381 3.96677 16.7613 4.69578 18.0356 5.97001C18.8258 6.76028 19.2118 7.28713 19.6774 8.20605C20.29 9.43127 20.5411 10.5279 20.5411 12.0042C20.5411 13.836 20.0939 15.3124 19.077 16.8439C18.6849 17.4381 17.4352 18.6879 16.841 19.0799C12.4914 21.9653 6.81248 20.5196 4.37428 15.9127C4.04347 15.2756 3.77392 14.5098 3.59626 13.7012C3.40635 12.8068 3.40635 11.2017 3.59626 10.3073C3.95158 8.64713 4.66221 7.30551 5.8078 6.11091C6.44492 5.44316 7.00239 4.99596 7.74366 4.57325C8.65645 4.04028 9.83879 3.64208 10.9109 3.49505C11.5847 3.40316 13.0305 3.46442 13.7289 3.61145Z" fill="#424242"/>
<path d="M11.7256 5.93938C11.6031 5.98839 6.18762 10.8832 5.99771 11.116C5.94258 11.1772 5.90582 11.3488 5.90582 11.5203C5.90582 11.7776 5.93645 11.845 6.10799 12.0165C6.2979 12.2064 6.33465 12.2187 6.82474 12.2432L7.33934 12.2615L7.35772 14.7365L7.37609 17.2115L7.57826 17.4075L7.77429 17.6097H8.93826H10.1022L10.2983 17.4075L10.5004 17.2115L10.5311 15.5574L10.5617 13.9033L10.7638 13.7073L10.9599 13.5051H12.0013H13.0428L13.2388 13.7073L13.441 13.9033L13.4716 15.5574L13.5022 17.2115L13.7044 17.4075L13.9004 17.6097H15.0644H16.2284L16.4244 17.4075L16.6266 17.2115L16.6449 14.7365L16.6633 12.2615L17.1779 12.2432C17.668 12.2187 17.7048 12.2064 17.8947 12.0165C18.0662 11.845 18.0968 11.7776 18.0968 11.5203C18.0968 11.3059 18.0601 11.1772 17.9743 11.0792C17.6741 10.7423 12.3995 5.98839 12.2647 5.93325C12.0871 5.86586 11.8911 5.86586 11.7256 5.93938Z" fill="#424242"/>
</svg>
