<svg width="24" height="25" viewBox="0 0 24 25" fill="none" xmlns="http://www.w3.org/2000/svg">
<path d="M10.8586 0.0526273C7.16956 0.40463 3.8138 2.4838 1.81442 5.6659C-0.47125 9.29857 -0.607358 14.006 1.46242 17.7654C2.40109 19.4738 3.74809 20.9381 5.40955 22.0505C6.52657 22.7967 8.22557 23.5101 9.52094 23.7682C10.5253 23.9701 10.9055 24.0076 12.0084 24.0076C13.1161 24.0076 13.5713 23.9607 14.5053 23.7682C18.6308 22.9094 22.0898 19.8117 23.4086 15.7942C23.8404 14.4801 24 13.4804 24 12.0395C24 10.8239 23.9202 10.1481 23.648 9.07799C23.418 8.17216 23.2115 7.60896 22.7797 6.73599C22.2024 5.55796 21.5501 4.63336 20.6255 3.67591C19.6399 2.65276 18.6683 1.93936 17.3823 1.28698C15.3595 0.268523 13.1067 -0.158575 10.8586 0.0526273ZM16.974 7.38837C17.3495 7.56203 17.7297 7.96096 17.8845 8.34113L17.9925 8.61334V12.016V15.4187L17.8845 15.6863C17.7297 16.0664 17.3776 16.4372 16.9928 16.6249L16.6783 16.7798H12.0084H7.33852L7.071 16.6531C6.69553 16.4794 6.35761 16.1462 6.17457 15.7754L6.02438 15.4657V12.016V8.56641L6.1511 8.29889C6.30129 7.97504 6.65329 7.58549 6.91143 7.45408C7.3573 7.2241 7.1461 7.23349 12.0554 7.24288L16.6783 7.25226L16.974 7.38837Z" fill="white"/>
<path d="M7.5685 8.46785C7.27751 8.59457 7.22119 8.73068 7.22119 9.31265V9.83362L9.61951 10.899L12.0131 11.9597L14.4067 10.899L16.7957 9.83831V9.31265C16.7957 8.72598 16.7394 8.59457 16.439 8.46785C16.209 8.37398 7.7844 8.37398 7.5685 8.46785Z" fill="white"/>
<path d="M7.22119 13.2082C7.22119 15.2216 7.22119 15.2451 7.32445 15.3718C7.53565 15.6393 7.36669 15.6299 12.0084 15.6299C16.6502 15.6299 16.4812 15.6393 16.6924 15.3718C16.7957 15.2451 16.7957 15.2216 16.7957 13.2082C16.7957 12.0864 16.7816 11.1712 16.7675 11.1712C16.7487 11.1712 15.7115 11.6265 14.4537 12.185C12.8955 12.8796 12.1211 13.1988 12.0084 13.1988C11.8958 13.1988 11.1214 12.8796 9.56318 12.185C8.30536 11.6265 7.26813 11.1712 7.24935 11.1712C7.23527 11.1712 7.22119 12.0864 7.22119 13.2082Z" fill="white"/>
</svg>
