<svg width="32" height="32" viewBox="0 0 32 32" fill="none" xmlns="http://www.w3.org/2000/svg">
<path d="M11.3863 29.9751C11.8413 29.7792 12.16 29.3267 12.16 28.8V25.344C12.16 25.2179 12.1703 25.0868 12.1863 24.9536C12.1773 24.9562 12.169 24.9581 12.16 24.96C12.16 24.96 10.24 24.96 9.85603 24.96C8.89603 24.96 8.06403 24.576 7.68003 23.808C7.23203 22.976 7.04003 21.568 5.88803 20.8C5.69603 20.672 5.82403 20.48 6.20803 20.48C6.59203 20.544 7.42403 21.056 7.93603 21.76C8.51203 22.464 9.08803 23.04 10.112 23.04C11.7037 23.04 12.5568 22.96 13.0701 22.6848C13.6679 21.7959 14.4954 21.12 15.36 21.12V21.104C11.7325 20.9875 9.41507 19.7818 8.33603 17.92C5.99043 17.9469 3.94819 18.1792 2.78275 18.3725C2.74563 18.1632 2.71363 17.9527 2.68611 17.7408C3.83619 17.5514 5.78563 17.3267 8.02691 17.2839C7.95523 17.1072 7.89315 16.9261 7.84067 16.7405C5.59363 16.6266 3.65443 16.7155 2.60099 16.8026C2.58819 16.5901 2.57091 16.3783 2.56835 16.1632C3.62371 16.0768 5.51043 15.9904 7.69987 16.0922C7.64931 15.7722 7.61667 15.4451 7.61667 15.1047C7.61667 14.0167 8.00067 12.8647 8.70467 11.9047C8.38467 10.8167 7.93667 8.51267 8.83267 7.68067C10.5607 7.68067 11.7767 8.51267 12.3527 9.02467C13.44 8.57603 14.656 8.32003 16 8.32003C17.344 8.32003 18.56 8.57603 19.584 9.02403C20.16 8.51203 21.376 7.68003 23.104 7.68003C24.064 8.57603 23.552 10.88 23.232 11.904C23.936 12.864 24.32 13.952 24.256 15.104C24.256 15.4138 24.2272 15.7127 24.1856 16.0058C26.425 15.8957 28.3629 15.984 29.4362 16.0711C29.4349 16.2867 29.4151 16.4973 29.4036 16.7104C28.3341 16.6221 26.3476 16.5312 24.0538 16.6535C23.9968 16.8685 23.9277 17.0778 23.8458 17.2807C26.1152 17.3101 28.1114 17.5296 29.3165 17.7216C29.289 17.9341 29.257 18.1447 29.2199 18.3533C27.9962 18.1575 25.9104 17.9284 23.5373 17.9168C22.4717 19.7588 20.1965 20.96 16.64 21.1002V21.12C18.304 21.12 19.84 23.616 19.84 25.344V28.8C19.84 29.3267 20.1588 29.7792 20.6138 29.9751C26.4768 28.0346 30.72 22.505 30.72 16C30.72 7.88355 24.1172 1.28003 16 1.28003C7.88291 1.28003 1.28003 7.88355 1.28003 16C1.28003 22.505 5.52323 28.0346 11.3863 29.9751Z" fill="#EEF5F5"/>
</svg>
