<svg width="32" height="32" viewBox="0 0 32 32" fill="none" xmlns="http://www.w3.org/2000/svg">
<path d="M16 0C7.17774 0 0 7.17704 0 16C0 24.823 7.17774 32 16 32C24.8223 32 32 24.823 32 16C32 7.17704 24.8223 0 16 0ZM11.1304 22.9565H8.34783V12.5217H11.1304V22.9565ZM9.73913 10.4348C8.97043 10.4348 8.34783 9.81217 8.34783 9.04348C8.34783 8.27478 8.97043 7.65217 9.73913 7.65217C10.5078 7.65217 11.1304 8.27478 11.1304 9.04348C11.1304 9.81217 10.5078 10.4348 9.73913 10.4348ZM24.3478 22.9565H21.5652V19.4783V17.7391C21.5652 16.4 20.4696 15.3043 19.1304 15.3043C17.7913 15.3043 16.6957 16.4 16.6957 17.7391V22.9565H13.913V12.5217H16.6957V13.785C17.5082 13.0045 18.6101 12.5217 19.8261 12.5217C22.3235 12.5217 24.3478 14.5461 24.3478 17.0435V22.9565Z" fill="#EEF5F5"/>
</svg>
