<svg width="24" height="24" viewBox="0 0 24 24" fill="none" xmlns="http://www.w3.org/2000/svg">
<path d="M10.9031 0.0523985C9.37963 0.197711 8.02963 0.586774 6.65619 1.27115C5.43744 1.87584 4.54682 2.51802 3.539 3.50709C2.57807 4.45865 1.88432 5.41959 1.26557 6.66177C-0.201622 9.60552 -0.398497 12.943 0.703066 16.0555C1.11557 17.2086 1.93588 18.6618 2.68588 19.5711C3.81557 20.9305 5.114 21.9618 6.65619 22.7305C8.48432 23.6399 10.4296 24.0665 12.4171 23.9868C14.2031 23.9118 15.7546 23.518 17.3343 22.7305C19.2374 21.7883 20.8171 20.3915 22.0031 18.6102C22.4109 17.9961 23.0203 16.7961 23.2687 16.1071C24.089 13.8665 24.2062 11.2883 23.5968 8.96802C23.3671 8.09615 23.1656 7.56177 22.7296 6.68052C22.1203 5.44771 21.4781 4.5524 20.489 3.54459C17.9999 1.02271 14.4093 -0.285102 10.9031 0.0523985ZM7.85619 5.76646C8.00619 5.82271 10.2796 8.06802 10.3828 8.26021C10.5421 8.5649 10.5093 8.62115 9.65619 9.48834C9.22494 9.92896 8.83119 10.3602 8.789 10.4399C8.61088 10.7915 8.64838 11.2086 8.88744 11.5696C9.67025 12.7321 11.7328 14.7243 12.6843 15.2352C12.8999 15.3524 13.3265 15.3618 13.5796 15.2586C13.6874 15.2118 14.0531 14.8883 14.5265 14.4149C15.3093 13.6368 15.4312 13.5524 15.689 13.618C15.8484 13.6555 18.1499 15.9336 18.2578 16.1633C18.3984 16.4633 18.239 16.7165 17.4937 17.368C16.6968 18.0665 15.8109 18.3618 14.9015 18.2352C13.6781 18.0665 11.6671 17.0727 10.214 15.9102C9.67025 15.4743 8.339 14.1383 7.90775 13.5946C6.93275 12.3711 6.089 10.8102 5.77963 9.68052C5.58275 8.95396 5.66713 8.19459 6.02807 7.45396C6.22494 7.05552 6.30463 6.94771 6.85307 6.3899C7.18588 6.04771 7.50463 5.76177 7.56088 5.7524C7.61244 5.74302 7.67338 5.72896 7.69213 5.72427C7.71088 5.72427 7.78119 5.74302 7.85619 5.76646Z" fill="white"/>
</svg>
