<svg width="52" height="52" viewBox="0 0 52 52" fill="none" xmlns="http://www.w3.org/2000/svg">
<g filter="url(#filter0_d_120_821)">
<rect x="4" width="44" height="44" rx="8" fill="white"/>
</g>
<path d="M38.6385 20.7272H33.781C31.0545 20.7272 28.9548 22.6322 26.1812 25.9659L21.4804 31.7137V31.7137C19.4922 33.877 16.9334 35.3694 14.1313 35.9999H15.0872C24.4889 35.9999 28.0616 33.1424 31.7126 28.8398L38.6385 20.7272Z" fill="#004876"/>
<path d="M35.4981 12C31.6183 12.0133 28.0185 14.1097 25.9719 17.5477L18.1762 29.587C14.5721 35.3831 12 35.9793 12 35.9793H13.7465C19.4435 36.2661 24.899 33.5548 28.274 28.759L40.7693 12H35.4981Z" fill="#FF9D1B"/>
<path opacity="0.45" d="M35.4981 12C31.6183 12.0133 28.0185 14.1097 25.9719 17.5477L18.1762 29.587C14.5721 35.3831 12 35.9793 12 35.9793H13.7465C19.4435 36.2661 24.899 33.5548 28.274 28.759L40.7693 12H35.4981Z" fill="url(#paint0_linear_120_821)"/>
<defs>
<filter id="filter0_d_120_821" x="0" y="0" width="52" height="52" color-interpolation-filters="sRGB">
<feFlood flood-opacity="0" result="BackgroundImageFix"/>
<feColorMatrix in="SourceAlpha" values="0 0 0 0 0 0 0 0 0 0 0 0 0 0 0 0 0 0 127 0" result="hardAlpha"/>
<feOffset dy="4"/>
<feGaussianBlur stdDeviation="2"/>
<feComposite in2="hardAlpha" operator="out"/>
<feColorMatrix values="0 0 0 0 0 0 0 0 0 0 0 0 0 0 0 0 0 0 0.25 0"/>
<feBlend in2="BackgroundImageFix" result="effect1_dropShadow_120_821"/>
<feBlend in="SourceGraphic" in2="effect1_dropShadow_120_821" result="shape"/>
</filter>
<linearGradient id="paint0_linear_120_821" x1="28.1413" y1="38.3793" x2="37.4575" y2="21.5144" gradientUnits="userSpaceOnUse">
<stop stop-color="#FF6B00"/>
<stop stop-color="#FF6B00"/>
<stop offset="0.29" stop-color="#FF6B00" stop-opacity="0.65"/>
<stop offset="0.55" stop-color="#FF6B00" stop-opacity="0.37"/>
<stop offset="0.75" stop-color="#FF6B00" stop-opacity="0.17"/>
<stop offset="0.91" stop-color="#FF6B00" stop-opacity="0.05"/>
<stop offset="1" stop-color="#FF6B00" stop-opacity="0.01"/>
</linearGradient>
</defs>
</svg>
