<svg width="52" height="52" viewBox="0 0 52 52" fill="none" xmlns="http://www.w3.org/2000/svg">
<g filter="url(#filter0_d_120_811)">
<rect x="4" width="44" height="44" rx="8" fill="white"/>
</g>
<path d="M34.6203 30.9105V30.9105C36.6373 30.7203 37.9312 30.8344 38.7304 31.3672C39.5296 31.9 39.9102 32.8514 40.0624 34.4498C40.1766 35.7056 39.7579 36.9996 39.0729 37.951C38.3879 38.9404 37.3604 39.5874 36.2568 39.7016V39.7016C33.6689 39.9299 31.5378 38.1413 31.1953 35.5154C31.1191 32.9275 32.5653 31.0628 34.6203 30.9105Z" fill="#05CCC9"/>
<path d="M25.7913 27.2952V27.2952C24.7257 28.9316 23.0132 30.0733 21.2246 30.568C19.4359 31.0628 17.5711 30.8725 16.1631 29.9211C14.4886 28.7794 13.1185 26.5341 12.3955 24.2126C11.6724 21.8912 11.6343 19.5317 12.5477 18.1236C13.5372 16.5633 15.2497 15.4216 17.0003 14.8508C18.7509 14.318 20.5776 14.356 21.7954 15.2313C24.5735 17.1341 26.2861 19.075 26.933 21.0539C27.58 23.109 27.1994 25.164 25.7913 27.2952Z" fill="#FE6678"/>
<path d="M19.7023 14.1277V14.1277C19.6262 11.5018 20.6156 8.952 22.1379 7.04918C23.6601 5.14636 25.7533 3.92856 27.8844 3.92856C30.4722 3.92856 33.5168 5.33665 35.9143 7.35363C38.3119 9.37062 40.0625 11.9204 40.1386 14.1657C40.2147 16.6394 39.2633 19.2272 37.8171 21.1681C36.371 23.109 34.4301 24.4029 32.5273 24.4029C28.2269 24.4029 25.0682 23.5657 22.9371 21.8531C20.882 20.1025 19.7784 17.5908 19.7023 14.1277Z" fill="#423B83"/>
<path d="M14.755 12.8338C12.5097 12.7196 11.9769 12.339 11.9769 10.7407C11.9769 9.44674 13.2708 8.34311 14.4505 8.34311C15.8586 8.45728 16.9242 9.44674 16.9242 10.8168C16.8861 12.0346 15.9347 12.8338 14.755 12.8338Z" fill="#FAD038"/>
<defs>
<filter id="filter0_d_120_811" x="0" y="0" width="52" height="52" color-interpolation-filters="sRGB">
<feFlood flood-opacity="0" result="BackgroundImageFix"/>
<feColorMatrix in="SourceAlpha" values="0 0 0 0 0 0 0 0 0 0 0 0 0 0 0 0 0 0 127 0" result="hardAlpha"/>
<feOffset dy="4"/>
<feGaussianBlur stdDeviation="2"/>
<feComposite in2="hardAlpha" operator="out"/>
<feColorMatrix values="0 0 0 0 0 0 0 0 0 0 0 0 0 0 0 0 0 0 0.25 0"/>
<feBlend in2="BackgroundImageFix" result="effect1_dropShadow_120_811"/>
<feBlend in="SourceGraphic" in2="effect1_dropShadow_120_811" result="shape"/>
</filter>
</defs>
</svg>
