<svg width="52" height="52" viewBox="0 0 52 52" fill="none" xmlns="http://www.w3.org/2000/svg">
<g filter="url(#filter0_d_120_827)">
<rect x="4" width="44" height="44" rx="8" fill="#004876"/>
</g>
<path d="M38.6385 18.7272H33.781C31.0545 18.7272 28.9548 20.6322 26.1812 23.9659L21.4804 29.7137V29.7137C19.4922 31.877 16.9334 33.3694 14.1313 33.9999H15.0872C24.4889 33.9999 28.0616 31.1424 31.7126 26.8398L38.6385 18.7272Z" fill="white"/>
<path d="M35.4981 10C31.6183 10.0133 28.0185 12.1097 25.9719 15.5477L18.1762 27.587C14.5721 33.3831 12 33.9793 12 33.9793H13.7465C19.4435 34.2661 24.899 31.5548 28.274 26.759L40.7693 10H35.4981Z" fill="#FF9D1B"/>
<path opacity="0.45" d="M35.4981 11C31.6183 11.0133 28.0185 13.1097 25.9719 16.5477L18.1762 28.587C14.5721 34.3831 12 34.9793 12 34.9793H13.7465C19.4435 35.2661 24.899 32.5548 28.274 27.759L40.7693 11H35.4981Z" fill="url(#paint0_linear_120_827)"/>
<defs>
<filter id="filter0_d_120_827" x="0" y="0" width="52" height="52" color-interpolation-filters="sRGB">
<feFlood flood-opacity="0" result="BackgroundImageFix"/>
<feColorMatrix in="SourceAlpha" values="0 0 0 0 0 0 0 0 0 0 0 0 0 0 0 0 0 0 127 0" result="hardAlpha"/>
<feOffset dy="4"/>
<feGaussianBlur stdDeviation="2"/>
<feComposite in2="hardAlpha" operator="out"/>
<feColorMatrix values="0 0 0 0 0 0 0 0 0 0 0 0 0 0 0 0 0 0 0.25 0"/>
<feBlend in2="BackgroundImageFix" result="effect1_dropShadow_120_827"/>
<feBlend in="SourceGraphic" in2="effect1_dropShadow_120_827" result="shape"/>
</filter>
<linearGradient id="paint0_linear_120_827" x1="28.1413" y1="37.3793" x2="37.4575" y2="20.5144" gradientUnits="userSpaceOnUse">
<stop stop-color="#FF6B00"/>
<stop stop-color="#FF6B00"/>
<stop offset="0.29" stop-color="#FF6B00" stop-opacity="0.65"/>
<stop offset="0.55" stop-color="#FF6B00" stop-opacity="0.37"/>
<stop offset="0.75" stop-color="#FF6B00" stop-opacity="0.17"/>
<stop offset="0.91" stop-color="#FF6B00" stop-opacity="0.05"/>
<stop offset="1" stop-color="#FF6B00" stop-opacity="0.01"/>
</linearGradient>
</defs>
</svg>
